<svg width="64" height="64" viewBox="0 0 64 64" fill="none" xmlns="http://www.w3.org/2000/svg">
<mask id="mask0_565_2453" style="mask-type:alpha" maskUnits="userSpaceOnUse" x="0" y="0" width="64" height="64">
<rect width="64" height="64" fill="#D9D9D9"/>
</mask>
<g mask="url(#mask0_565_2453)">
<path d="M13.3333 56C11.8667 56 10.6111 55.4778 9.56667 54.4334C8.52222 53.3889 8 52.1334 8 50.6667V13.3334C8 11.8667 8.52222 10.6111 9.56667 9.56669C10.6111 8.52224 11.8667 8.00002 13.3333 8.00002H24.5333C25.1556 6.40002 26.1333 5.11113 27.4667 4.13335C28.8 3.15558 30.3111 2.66669 32 2.66669C33.6889 2.66669 35.2 3.15558 36.5333 4.13335C37.8667 5.11113 38.8444 6.40002 39.4667 8.00002H50.6667C52.1333 8.00002 53.3889 8.52224 54.4333 9.56669C55.4778 10.6111 56 11.8667 56 13.3334V50.6667C56 52.1334 55.4778 53.3889 54.4333 54.4334C53.3889 55.4778 52.1333 56 50.6667 56H13.3333ZM32 11.3334C32.5778 11.3334 33.0556 11.1445 33.4333 10.7667C33.8111 10.3889 34 9.91113 34 9.33335C34 8.75558 33.8111 8.2778 33.4333 7.90002C33.0556 7.52224 32.5778 7.33335 32 7.33335C31.4222 7.33335 30.9444 7.52224 30.5667 7.90002C30.1889 8.2778 30 8.75558 30 9.33335C30 9.91113 30.1889 10.3889 30.5667 10.7667C30.9444 11.1445 31.4222 11.3334 32 11.3334ZM13.3333 47.6C15.7333 45.2445 18.5222 43.3889 21.7 42.0334C24.8778 40.6778 28.3111 40 32 40C35.6889 40 39.1222 40.6778 42.3 42.0334C45.4778 43.3889 48.2667 45.2445 50.6667 47.6V13.3334H13.3333V47.6ZM32 34.6667C34.5778 34.6667 36.7778 33.7556 38.6 31.9334C40.4222 30.1111 41.3333 27.9111 41.3333 25.3334C41.3333 22.7556 40.4222 20.5556 38.6 18.7334C36.7778 16.9111 34.5778 16 32 16C29.4222 16 27.2222 16.9111 25.4 18.7334C23.5778 20.5556 22.6667 22.7556 22.6667 25.3334C22.6667 27.9111 23.5778 30.1111 25.4 31.9334C27.2222 33.7556 29.4222 34.6667 32 34.6667ZM18.6667 50.6667H45.3333V50C43.4667 48.4445 41.4 47.2778 39.1333 46.5C36.8667 45.7222 34.4889 45.3334 32 45.3334C29.5111 45.3334 27.1333 45.7222 24.8667 46.5C22.6 47.2778 20.5333 48.4445 18.6667 50V50.6667ZM32 29.3334C30.8889 29.3334 29.9444 28.9445 29.1667 28.1667C28.3889 27.3889 28 26.4445 28 25.3334C28 24.2222 28.3889 23.2778 29.1667 22.5C29.9444 21.7222 30.8889 21.3334 32 21.3334C33.1111 21.3334 34.0556 21.7222 34.8333 22.5C35.6111 23.2778 36 24.2222 36 25.3334C36 26.4445 35.6111 27.3889 34.8333 28.1667C34.0556 28.9445 33.1111 29.3334 32 29.3334Z" fill="#141416"/>
<path d="M13.3333 56C11.8667 56 10.6111 55.4778 9.56667 54.4334C8.52222 53.3889 8 52.1334 8 50.6667V13.3334C8 11.8667 8.52222 10.6111 9.56667 9.56669C10.6111 8.52224 11.8667 8.00002 13.3333 8.00002H24.5333C25.1556 6.40002 26.1333 5.11113 27.4667 4.13335C28.8 3.15558 30.3111 2.66669 32 2.66669C33.6889 2.66669 35.2 3.15558 36.5333 4.13335C37.8667 5.11113 38.8444 6.40002 39.4667 8.00002H50.6667C52.1333 8.00002 53.3889 8.52224 54.4333 9.56669C55.4778 10.6111 56 11.8667 56 13.3334V50.6667C56 52.1334 55.4778 53.3889 54.4333 54.4334C53.3889 55.4778 52.1333 56 50.6667 56H13.3333ZM32 11.3334C32.5778 11.3334 33.0556 11.1445 33.4333 10.7667C33.8111 10.3889 34 9.91113 34 9.33335C34 8.75558 33.8111 8.2778 33.4333 7.90002C33.0556 7.52224 32.5778 7.33335 32 7.33335C31.4222 7.33335 30.9444 7.52224 30.5667 7.90002C30.1889 8.2778 30 8.75558 30 9.33335C30 9.91113 30.1889 10.3889 30.5667 10.7667C30.9444 11.1445 31.4222 11.3334 32 11.3334ZM13.3333 47.6C15.7333 45.2445 18.5222 43.3889 21.7 42.0334C24.8778 40.6778 28.3111 40 32 40C35.6889 40 39.1222 40.6778 42.3 42.0334C45.4778 43.3889 48.2667 45.2445 50.6667 47.6V13.3334H13.3333V47.6ZM32 34.6667C34.5778 34.6667 36.7778 33.7556 38.6 31.9334C40.4222 30.1111 41.3333 27.9111 41.3333 25.3334C41.3333 22.7556 40.4222 20.5556 38.6 18.7334C36.7778 16.9111 34.5778 16 32 16C29.4222 16 27.2222 16.9111 25.4 18.7334C23.5778 20.5556 22.6667 22.7556 22.6667 25.3334C22.6667 27.9111 23.5778 30.1111 25.4 31.9334C27.2222 33.7556 29.4222 34.6667 32 34.6667ZM18.6667 50.6667H45.3333V50C43.4667 48.4445 41.4 47.2778 39.1333 46.5C36.8667 45.7222 34.4889 45.3334 32 45.3334C29.5111 45.3334 27.1333 45.7222 24.8667 46.5C22.6 47.2778 20.5333 48.4445 18.6667 50V50.6667ZM32 29.3334C30.8889 29.3334 29.9444 28.9445 29.1667 28.1667C28.3889 27.3889 28 26.4445 28 25.3334C28 24.2222 28.3889 23.2778 29.1667 22.5C29.9444 21.7222 30.8889 21.3334 32 21.3334C33.1111 21.3334 34.0556 21.7222 34.8333 22.5C35.6111 23.2778 36 24.2222 36 25.3334C36 26.4445 35.6111 27.3889 34.8333 28.1667C34.0556 28.9445 33.1111 29.3334 32 29.3334Z" fill="black" fill-opacity="0.2"/>
</g>
</svg>
