<svg width="64" height="64" viewBox="0 0 64 64" fill="none" xmlns="http://www.w3.org/2000/svg">
<mask id="mask0_565_2450" style="mask-type:alpha" maskUnits="userSpaceOnUse" x="0" y="0" width="64" height="64">
<rect width="64" height="64" fill="#D9D9D9"/>
</mask>
<g mask="url(#mask0_565_2450)">
<path d="M32.1333 53.3333C26.1777 53.3333 21.1111 51.2666 16.9333 47.1333C12.7555 43 10.6666 37.9555 10.6666 32V31.5333L6.39996 35.8L2.66663 32.0666L13.3333 21.4L24 32.0666L20.2666 35.8L16 31.5333V32C16 36.4444 17.5666 40.2222 20.7 43.3333C23.8333 46.4444 27.6444 48 32.1333 48C33.2888 48 34.4222 47.8666 35.5333 47.6C36.6444 47.3333 37.7333 46.9333 38.8 46.4L42.8 50.4C41.1111 51.3777 39.3777 52.1111 37.6 52.6C35.8222 53.0889 34 53.3333 32.1333 53.3333ZM50.6666 42.6L40 31.9333L43.7333 28.2L48 32.4666V32C48 27.5555 46.4333 23.7777 43.3 20.6666C40.1666 17.5555 36.3555 16 31.8666 16C30.7111 16 29.5777 16.1333 28.4666 16.4C27.3555 16.6666 26.2666 17.0666 25.2 17.6L21.2 13.6C22.8888 12.6222 24.6222 11.8888 26.4 11.4C28.1777 10.9111 30 10.6666 31.8666 10.6666C37.8222 10.6666 42.8888 12.7333 47.0666 16.8666C51.2444 21 53.3333 26.0444 53.3333 32V32.4666L57.6 28.2L61.3333 31.9333L50.6666 42.6Z" fill="#141416"/>
<path d="M32.1333 53.3333C26.1777 53.3333 21.1111 51.2666 16.9333 47.1333C12.7555 43 10.6666 37.9555 10.6666 32V31.5333L6.39996 35.8L2.66663 32.0666L13.3333 21.4L24 32.0666L20.2666 35.8L16 31.5333V32C16 36.4444 17.5666 40.2222 20.7 43.3333C23.8333 46.4444 27.6444 48 32.1333 48C33.2888 48 34.4222 47.8666 35.5333 47.6C36.6444 47.3333 37.7333 46.9333 38.8 46.4L42.8 50.4C41.1111 51.3777 39.3777 52.1111 37.6 52.6C35.8222 53.0889 34 53.3333 32.1333 53.3333ZM50.6666 42.6L40 31.9333L43.7333 28.2L48 32.4666V32C48 27.5555 46.4333 23.7777 43.3 20.6666C40.1666 17.5555 36.3555 16 31.8666 16C30.7111 16 29.5777 16.1333 28.4666 16.4C27.3555 16.6666 26.2666 17.0666 25.2 17.6L21.2 13.6C22.8888 12.6222 24.6222 11.8888 26.4 11.4C28.1777 10.9111 30 10.6666 31.8666 10.6666C37.8222 10.6666 42.8888 12.7333 47.0666 16.8666C51.2444 21 53.3333 26.0444 53.3333 32V32.4666L57.6 28.2L61.3333 31.9333L50.6666 42.6Z" fill="black" fill-opacity="0.2"/>
</g>
</svg>
