<svg width="64" height="64" viewBox="0 0 64 64" fill="none" xmlns="http://www.w3.org/2000/svg">
<mask id="mask0_565_2456" style="mask-type:alpha" maskUnits="userSpaceOnUse" x="0" y="0" width="64" height="64">
<rect width="64" height="64" fill="#D9D9D9"/>
</mask>
<g mask="url(#mask0_565_2456)">
<path d="M32 45.3334C32.7556 45.3334 33.3889 45.0778 33.9 44.5667C34.4112 44.0556 34.6667 43.4222 34.6667 42.6667C34.6667 41.9111 34.4112 41.2778 33.9 40.7667C33.3889 40.2556 32.7556 40 32 40C31.2445 40 30.6112 40.2556 30.1 40.7667C29.5889 41.2778 29.3334 41.9111 29.3334 42.6667C29.3334 43.4222 29.5889 44.0556 30.1 44.5667C30.6112 45.0778 31.2445 45.3334 32 45.3334ZM32 34.6667C32.7556 34.6667 33.3889 34.4111 33.9 33.9C34.4112 33.3889 34.6667 32.7556 34.6667 32C34.6667 31.2445 34.4112 30.6111 33.9 30.1C33.3889 29.5889 32.7556 29.3334 32 29.3334C31.2445 29.3334 30.6112 29.5889 30.1 30.1C29.5889 30.6111 29.3334 31.2445 29.3334 32C29.3334 32.7556 29.5889 33.3889 30.1 33.9C30.6112 34.4111 31.2445 34.6667 32 34.6667ZM32 24C32.7556 24 33.3889 23.7445 33.9 23.2334C34.4112 22.7222 34.6667 22.0889 34.6667 21.3334C34.6667 20.5778 34.4112 19.9445 33.9 19.4334C33.3889 18.9222 32.7556 18.6667 32 18.6667C31.2445 18.6667 30.6112 18.9222 30.1 19.4334C29.5889 19.9445 29.3334 20.5778 29.3334 21.3334C29.3334 22.0889 29.5889 22.7222 30.1 23.2334C30.6112 23.7445 31.2445 24 32 24ZM53.3334 53.3334H10.6667C9.20004 53.3334 7.94449 52.8111 6.90004 51.7667C5.8556 50.7222 5.33337 49.4667 5.33337 48V37.3334C6.80004 37.3334 8.0556 36.8111 9.10004 35.7667C10.1445 34.7222 10.6667 33.4667 10.6667 32C10.6667 30.5334 10.1445 29.2778 9.10004 28.2334C8.0556 27.1889 6.80004 26.6667 5.33337 26.6667V16C5.33337 14.5334 5.8556 13.2778 6.90004 12.2334C7.94449 11.1889 9.20004 10.6667 10.6667 10.6667H53.3334C54.8 10.6667 56.0556 11.1889 57.1 12.2334C58.1445 13.2778 58.6667 14.5334 58.6667 16V26.6667C57.2 26.6667 55.9445 27.1889 54.9 28.2334C53.8556 29.2778 53.3334 30.5334 53.3334 32C53.3334 33.4667 53.8556 34.7222 54.9 35.7667C55.9445 36.8111 57.2 37.3334 58.6667 37.3334V48C58.6667 49.4667 58.1445 50.7222 57.1 51.7667C56.0556 52.8111 54.8 53.3334 53.3334 53.3334ZM53.3334 48V41.2C51.6889 40.2222 50.3889 38.9222 49.4334 37.3C48.4778 35.6778 48 33.9111 48 32C48 30.0889 48.4778 28.3222 49.4334 26.7C50.3889 25.0778 51.6889 23.7778 53.3334 22.8V16H10.6667V22.8C12.3112 23.7778 13.6112 25.0778 14.5667 26.7C15.5223 28.3222 16 30.0889 16 32C16 33.9111 15.5223 35.6778 14.5667 37.3C13.6112 38.9222 12.3112 40.2222 10.6667 41.2V48H53.3334Z" fill="#141416"/>
<path d="M32 45.3334C32.7556 45.3334 33.3889 45.0778 33.9 44.5667C34.4112 44.0556 34.6667 43.4222 34.6667 42.6667C34.6667 41.9111 34.4112 41.2778 33.9 40.7667C33.3889 40.2556 32.7556 40 32 40C31.2445 40 30.6112 40.2556 30.1 40.7667C29.5889 41.2778 29.3334 41.9111 29.3334 42.6667C29.3334 43.4222 29.5889 44.0556 30.1 44.5667C30.6112 45.0778 31.2445 45.3334 32 45.3334ZM32 34.6667C32.7556 34.6667 33.3889 34.4111 33.9 33.9C34.4112 33.3889 34.6667 32.7556 34.6667 32C34.6667 31.2445 34.4112 30.6111 33.9 30.1C33.3889 29.5889 32.7556 29.3334 32 29.3334C31.2445 29.3334 30.6112 29.5889 30.1 30.1C29.5889 30.6111 29.3334 31.2445 29.3334 32C29.3334 32.7556 29.5889 33.3889 30.1 33.9C30.6112 34.4111 31.2445 34.6667 32 34.6667ZM32 24C32.7556 24 33.3889 23.7445 33.9 23.2334C34.4112 22.7222 34.6667 22.0889 34.6667 21.3334C34.6667 20.5778 34.4112 19.9445 33.9 19.4334C33.3889 18.9222 32.7556 18.6667 32 18.6667C31.2445 18.6667 30.6112 18.9222 30.1 19.4334C29.5889 19.9445 29.3334 20.5778 29.3334 21.3334C29.3334 22.0889 29.5889 22.7222 30.1 23.2334C30.6112 23.7445 31.2445 24 32 24ZM53.3334 53.3334H10.6667C9.20004 53.3334 7.94449 52.8111 6.90004 51.7667C5.8556 50.7222 5.33337 49.4667 5.33337 48V37.3334C6.80004 37.3334 8.0556 36.8111 9.10004 35.7667C10.1445 34.7222 10.6667 33.4667 10.6667 32C10.6667 30.5334 10.1445 29.2778 9.10004 28.2334C8.0556 27.1889 6.80004 26.6667 5.33337 26.6667V16C5.33337 14.5334 5.8556 13.2778 6.90004 12.2334C7.94449 11.1889 9.20004 10.6667 10.6667 10.6667H53.3334C54.8 10.6667 56.0556 11.1889 57.1 12.2334C58.1445 13.2778 58.6667 14.5334 58.6667 16V26.6667C57.2 26.6667 55.9445 27.1889 54.9 28.2334C53.8556 29.2778 53.3334 30.5334 53.3334 32C53.3334 33.4667 53.8556 34.7222 54.9 35.7667C55.9445 36.8111 57.2 37.3334 58.6667 37.3334V48C58.6667 49.4667 58.1445 50.7222 57.1 51.7667C56.0556 52.8111 54.8 53.3334 53.3334 53.3334ZM53.3334 48V41.2C51.6889 40.2222 50.3889 38.9222 49.4334 37.3C48.4778 35.6778 48 33.9111 48 32C48 30.0889 48.4778 28.3222 49.4334 26.7C50.3889 25.0778 51.6889 23.7778 53.3334 22.8V16H10.6667V22.8C12.3112 23.7778 13.6112 25.0778 14.5667 26.7C15.5223 28.3222 16 30.0889 16 32C16 33.9111 15.5223 35.6778 14.5667 37.3C13.6112 38.9222 12.3112 40.2222 10.6667 41.2V48H53.3334Z" fill="black" fill-opacity="0.2"/>
</g>
</svg>
