<svg width="64" height="64" viewBox="0 0 64 64" fill="none" xmlns="http://www.w3.org/2000/svg">
<mask id="mask0_565_2472" style="mask-type:alpha" maskUnits="userSpaceOnUse" x="0" y="0" width="64" height="64">
<rect width="64" height="64" fill="#D9D9D9"/>
</mask>
<g mask="url(#mask0_565_2472)">
<path d="M56.0001 48.4L50.6667 43.0667V13.3334C50.6667 12.5778 50.9223 11.9445 51.4334 11.4334C51.9445 10.9222 52.5778 10.6667 53.3334 10.6667C54.0889 10.6667 54.7223 10.9222 55.2334 11.4334C55.7445 11.9445 56.0001 12.5778 56.0001 13.3334V48.4ZM24 16.4L18.6667 11.0667V10.6667C18.6667 9.91113 18.9223 9.2778 19.4334 8.76669C19.9445 8.25558 20.5778 8.00002 21.3334 8.00002C22.0889 8.00002 22.7223 8.25558 23.2334 8.76669C23.7445 9.2778 24 9.91113 24 10.6667V16.4ZM34.6667 27.0667L29.3334 21.7334V5.33335C29.3334 4.5778 29.5889 3.94446 30.1 3.43335C30.6112 2.92224 31.2445 2.66669 32 2.66669C32.7556 2.66669 33.3889 2.92224 33.9001 3.43335C34.4112 3.94446 34.6667 4.5778 34.6667 5.33335V27.0667ZM45.3334 32.4667H40V8.00002C40 7.24446 40.2556 6.61113 40.7667 6.10002C41.2778 5.58891 41.9112 5.33335 42.6667 5.33335C43.4223 5.33335 44.0556 5.58891 44.5667 6.10002C45.0778 6.61113 45.3334 7.24446 45.3334 8.00002V32.4667ZM47.8 55.3334L24 31.5334V46.4667L14.1334 39.5334L24.6 54.8C24.8223 55.1556 25.1334 55.4445 25.5334 55.6667C25.9334 55.8889 26.3556 56 26.8 56H45.3334C45.7778 56 46.2112 55.9445 46.6334 55.8334C47.0556 55.7222 47.4445 55.5556 47.8 55.3334ZM26.8 61.3334C25.4667 61.3334 24.2223 61.0334 23.0667 60.4334C21.9112 59.8334 20.9556 58.9778 20.2001 57.8667L3.20005 33L4.80005 31.4667C5.64449 30.6222 6.64449 30.1334 7.80005 30C8.9556 29.8667 10 30.1334 10.9334 30.8L18.6667 36.2V26.2L1.80005 9.33335L5.60005 5.53335L58.4001 58.3334L54.6001 62.1334L51.6667 59.2C50.7778 59.8667 49.8001 60.3889 48.7334 60.7667C47.6667 61.1445 46.5334 61.3334 45.3334 61.3334H26.8Z" fill="#141416"/>
<path d="M56.0001 48.4L50.6667 43.0667V13.3334C50.6667 12.5778 50.9223 11.9445 51.4334 11.4334C51.9445 10.9222 52.5778 10.6667 53.3334 10.6667C54.0889 10.6667 54.7223 10.9222 55.2334 11.4334C55.7445 11.9445 56.0001 12.5778 56.0001 13.3334V48.4ZM24 16.4L18.6667 11.0667V10.6667C18.6667 9.91113 18.9223 9.2778 19.4334 8.76669C19.9445 8.25558 20.5778 8.00002 21.3334 8.00002C22.0889 8.00002 22.7223 8.25558 23.2334 8.76669C23.7445 9.2778 24 9.91113 24 10.6667V16.4ZM34.6667 27.0667L29.3334 21.7334V5.33335C29.3334 4.5778 29.5889 3.94446 30.1 3.43335C30.6112 2.92224 31.2445 2.66669 32 2.66669C32.7556 2.66669 33.3889 2.92224 33.9001 3.43335C34.4112 3.94446 34.6667 4.5778 34.6667 5.33335V27.0667ZM45.3334 32.4667H40V8.00002C40 7.24446 40.2556 6.61113 40.7667 6.10002C41.2778 5.58891 41.9112 5.33335 42.6667 5.33335C43.4223 5.33335 44.0556 5.58891 44.5667 6.10002C45.0778 6.61113 45.3334 7.24446 45.3334 8.00002V32.4667ZM47.8 55.3334L24 31.5334V46.4667L14.1334 39.5334L24.6 54.8C24.8223 55.1556 25.1334 55.4445 25.5334 55.6667C25.9334 55.8889 26.3556 56 26.8 56H45.3334C45.7778 56 46.2112 55.9445 46.6334 55.8334C47.0556 55.7222 47.4445 55.5556 47.8 55.3334ZM26.8 61.3334C25.4667 61.3334 24.2223 61.0334 23.0667 60.4334C21.9112 59.8334 20.9556 58.9778 20.2001 57.8667L3.20005 33L4.80005 31.4667C5.64449 30.6222 6.64449 30.1334 7.80005 30C8.9556 29.8667 10 30.1334 10.9334 30.8L18.6667 36.2V26.2L1.80005 9.33335L5.60005 5.53335L58.4001 58.3334L54.6001 62.1334L51.6667 59.2C50.7778 59.8667 49.8001 60.3889 48.7334 60.7667C47.6667 61.1445 46.5334 61.3334 45.3334 61.3334H26.8Z" fill="black" fill-opacity="0.2"/>
</g>
</svg>
