<svg width="114" height="114" viewBox="0 0 114 114" fill="none" xmlns="http://www.w3.org/2000/svg">
<path d="M75.75 113.249C63.4583 113.249 52.5208 109.76 42.9375 102.781C33.3542 95.8014 26.5833 86.791 22.625 75.7493H0.75V63.2493H19.8125C19.6042 62.1035 19.5 61.0618 19.5 60.1243V53.8743C19.5 52.9368 19.6042 51.8952 19.8125 50.7493H0.75V38.2493H22.625C26.5833 27.2077 33.3542 18.1972 42.9375 11.2181C52.5208 4.23891 63.4583 0.749329 75.75 0.749329C82.9375 0.749329 89.7344 1.99933 96.1406 4.49933C102.547 6.99933 108.25 10.541 113.25 15.1243L102.312 26.0618C98.6666 23.041 94.5781 20.6712 90.0469 18.9525C85.5156 17.2337 80.75 16.3743 75.75 16.3743C67.9375 16.3743 60.8281 18.3795 54.4219 22.39C48.0156 26.4004 43.1458 31.6868 39.8125 38.2493H75.75V50.7493H35.75C35.5417 51.8952 35.3854 52.9368 35.2812 53.8743C35.1771 54.8118 35.125 55.8535 35.125 56.9993C35.125 58.1452 35.1771 59.1868 35.2812 60.1243C35.3854 61.0618 35.5417 62.1035 35.75 63.2493H75.75V75.7493H39.8125C43.1458 82.3118 48.0156 87.5983 54.4219 91.6087C60.8281 95.6191 67.9375 97.6243 75.75 97.6243C80.75 97.6243 85.5677 96.7649 90.2031 95.0462C94.8385 93.3274 98.875 90.9576 102.312 87.9368L113.25 98.8743C108.25 103.458 102.547 106.999 96.1406 109.499C89.7344 111.999 82.9375 113.249 75.75 113.249Z" fill="#F3F0F5"/>
</svg>
