<svg width="64" height="64" viewBox="0 0 64 64" fill="none" xmlns="http://www.w3.org/2000/svg">
<mask id="mask0_565_2478" style="mask-type:alpha" maskUnits="userSpaceOnUse" x="0" y="0" width="64" height="64">
<rect width="64" height="64" fill="#D9D9D9"/>
</mask>
<g mask="url(#mask0_565_2478)">
<path d="M32.0667 11.9334C36.7779 11.9334 41.2223 12.9445 45.4001 14.9667C49.5779 16.9889 53.0667 19.9111 55.8667 23.7334C56.1779 24.1334 56.2779 24.4889 56.1667 24.8C56.0556 25.1111 55.8667 25.3778 55.6001 25.6C55.3334 25.8222 55.0223 25.9222 54.6667 25.9C54.3112 25.8778 54.0001 25.6889 53.7334 25.3334C51.289 21.8667 48.1445 19.2111 44.3001 17.3667C40.4556 15.5222 36.3779 14.6 32.0667 14.6C27.7556 14.6 23.7112 15.5222 19.9334 17.3667C16.1556 19.2111 13.0223 21.8667 10.5334 25.3334C10.2667 25.7334 9.95563 25.9556 9.60008 26C9.24452 26.0445 8.93341 25.9556 8.66674 25.7334C8.35563 25.5111 8.16674 25.2334 8.10008 24.9C8.03341 24.5667 8.13341 24.2222 8.40008 23.8667C11.1556 20.0889 14.6112 17.1556 18.7667 15.0667C22.9223 12.9778 27.3556 11.9334 32.0667 11.9334ZM32.0667 18.2C38.0667 18.2 43.2223 20.2 47.5334 24.2C51.8445 28.2 54.0001 33.1556 54.0001 39.0667C54.0001 41.2889 53.2112 43.1445 51.6334 44.6334C50.0556 46.1222 48.1334 46.8667 45.8667 46.8667C43.6001 46.8667 41.6556 46.1222 40.0334 44.6334C38.4112 43.1445 37.6001 41.2889 37.6001 39.0667C37.6001 37.6 37.0556 36.3667 35.9667 35.3667C34.8779 34.3667 33.5779 33.8667 32.0667 33.8667C30.5556 33.8667 29.2556 34.3667 28.1667 35.3667C27.0779 36.3667 26.5334 37.6 26.5334 39.0667C26.5334 43.3778 27.8112 46.9778 30.3667 49.8667C32.9223 52.7556 36.2223 54.7778 40.2667 55.9334C40.6667 56.0667 40.9334 56.2889 41.0667 56.6C41.2001 56.9111 41.2223 57.2445 41.1334 57.6C41.0445 57.9111 40.8667 58.1778 40.6001 58.4C40.3334 58.6222 40.0001 58.6889 39.6001 58.6C34.9779 57.4445 31.2001 55.1445 28.2667 51.7C25.3334 48.2556 23.8667 44.0445 23.8667 39.0667C23.8667 36.8445 24.6667 34.9778 26.2667 33.4667C27.8667 31.9556 29.8001 31.2 32.0667 31.2C34.3334 31.2 36.2667 31.9556 37.8667 33.4667C39.4667 34.9778 40.2667 36.8445 40.2667 39.0667C40.2667 40.5334 40.8223 41.7667 41.9334 42.7667C43.0445 43.7667 44.3556 44.2667 45.8667 44.2667C47.3779 44.2667 48.6667 43.7667 49.7334 42.7667C50.8001 41.7667 51.3334 40.5334 51.3334 39.0667C51.3334 33.9111 49.4445 29.5778 45.6667 26.0667C41.889 22.5556 37.3779 20.8 32.1334 20.8C26.889 20.8 22.3779 22.5556 18.6001 26.0667C14.8223 29.5778 12.9334 33.8889 12.9334 39C12.9334 40.0667 13.0334 41.4 13.2334 43C13.4334 44.6 13.9112 46.4667 14.6667 48.6C14.8001 49 14.789 49.3556 14.6334 49.6667C14.4779 49.9778 14.2223 50.2 13.8667 50.3334C13.5112 50.4667 13.1667 50.4556 12.8334 50.3C12.5001 50.1445 12.2667 49.8889 12.1334 49.5334C11.4667 47.8 10.989 46.0778 10.7001 44.3667C10.4112 42.6556 10.2667 40.8889 10.2667 39.0667C10.2667 33.1556 12.4112 28.2 16.7001 24.2C20.989 20.2 26.1112 18.2 32.0667 18.2ZM32.0667 5.40002C34.9112 5.40002 37.689 5.74447 40.4001 6.43336C43.1112 7.12225 45.7334 8.11114 48.2667 9.40002C48.6667 9.62225 48.9001 9.88891 48.9667 10.2C49.0334 10.5111 49.0001 10.8222 48.8667 11.1334C48.7334 11.4445 48.5112 11.6889 48.2001 11.8667C47.889 12.0445 47.5112 12.0222 47.0667 11.8C44.7112 10.6 42.2779 9.6778 39.7667 9.03336C37.2556 8.38891 34.689 8.06669 32.0667 8.06669C29.489 8.06669 26.9556 8.36669 24.4667 8.96669C21.9779 9.56669 19.6001 10.5111 17.3334 11.8C16.9779 12.0222 16.6223 12.0778 16.2667 11.9667C15.9112 11.8556 15.6445 11.6222 15.4667 11.2667C15.289 10.9111 15.2445 10.5889 15.3334 10.3C15.4223 10.0111 15.6445 9.75558 16.0001 9.53336C18.489 8.20002 21.089 7.1778 23.8001 6.46669C26.5112 5.75558 29.2667 5.40002 32.0667 5.40002ZM32.0667 24.6667C36.2001 24.6667 39.7556 26.0556 42.7334 28.8334C45.7112 31.6111 47.2001 35.0222 47.2001 39.0667C47.2001 39.4667 47.0779 39.7889 46.8334 40.0334C46.589 40.2778 46.2667 40.4 45.8667 40.4C45.5112 40.4 45.2001 40.2778 44.9334 40.0334C44.6667 39.7889 44.5334 39.4667 44.5334 39.0667C44.5334 35.7334 43.3001 32.9445 40.8334 30.7C38.3667 28.4556 35.4445 27.3334 32.0667 27.3334C28.689 27.3334 25.789 28.4556 23.3667 30.7C20.9445 32.9445 19.7334 35.7334 19.7334 39.0667C19.7334 42.6667 20.3556 45.7222 21.6001 48.2334C22.8445 50.7445 24.6667 53.2667 27.0667 55.8C27.3334 56.0667 27.4667 56.3778 27.4667 56.7334C27.4667 57.0889 27.3334 57.4 27.0667 57.6667C26.8001 57.9334 26.489 58.0667 26.1334 58.0667C25.7779 58.0667 25.4667 57.9334 25.2001 57.6667C22.5779 54.9111 20.5667 52.1 19.1667 49.2334C17.7667 46.3667 17.0667 42.9778 17.0667 39.0667C17.0667 35.0222 18.5334 31.6111 21.4667 28.8334C24.4001 26.0556 27.9334 24.6667 32.0667 24.6667ZM32.0001 37.7334C32.4001 37.7334 32.7223 37.8667 32.9667 38.1334C33.2112 38.4 33.3334 38.7111 33.3334 39.0667C33.3334 42.4 34.5334 45.1334 36.9334 47.2667C39.3334 49.4 42.1334 50.4667 45.3334 50.4667C45.6001 50.4667 45.9779 50.4445 46.4667 50.4C46.9556 50.3556 47.4667 50.2889 48.0001 50.2C48.4001 50.1111 48.7445 50.1667 49.0334 50.3667C49.3223 50.5667 49.5112 50.8667 49.6001 51.2667C49.689 51.6222 49.6223 51.9334 49.4001 52.2C49.1779 52.4667 48.889 52.6445 48.5334 52.7334C47.7334 52.9556 47.0334 53.0778 46.4334 53.1C45.8334 53.1222 45.4667 53.1334 45.3334 53.1334C41.3779 53.1334 37.9445 51.8 35.0334 49.1334C32.1223 46.4667 30.6667 43.1111 30.6667 39.0667C30.6667 38.7111 30.789 38.4 31.0334 38.1334C31.2779 37.8667 31.6001 37.7334 32.0001 37.7334Z" fill="#141416"/>
<path d="M32.0667 11.9334C36.7779 11.9334 41.2223 12.9445 45.4001 14.9667C49.5779 16.9889 53.0667 19.9111 55.8667 23.7334C56.1779 24.1334 56.2779 24.4889 56.1667 24.8C56.0556 25.1111 55.8667 25.3778 55.6001 25.6C55.3334 25.8222 55.0223 25.9222 54.6667 25.9C54.3112 25.8778 54.0001 25.6889 53.7334 25.3334C51.289 21.8667 48.1445 19.2111 44.3001 17.3667C40.4556 15.5222 36.3779 14.6 32.0667 14.6C27.7556 14.6 23.7112 15.5222 19.9334 17.3667C16.1556 19.2111 13.0223 21.8667 10.5334 25.3334C10.2667 25.7334 9.95563 25.9556 9.60008 26C9.24452 26.0445 8.93341 25.9556 8.66674 25.7334C8.35563 25.5111 8.16674 25.2334 8.10008 24.9C8.03341 24.5667 8.13341 24.2222 8.40008 23.8667C11.1556 20.0889 14.6112 17.1556 18.7667 15.0667C22.9223 12.9778 27.3556 11.9334 32.0667 11.9334ZM32.0667 18.2C38.0667 18.2 43.2223 20.2 47.5334 24.2C51.8445 28.2 54.0001 33.1556 54.0001 39.0667C54.0001 41.2889 53.2112 43.1445 51.6334 44.6334C50.0556 46.1222 48.1334 46.8667 45.8667 46.8667C43.6001 46.8667 41.6556 46.1222 40.0334 44.6334C38.4112 43.1445 37.6001 41.2889 37.6001 39.0667C37.6001 37.6 37.0556 36.3667 35.9667 35.3667C34.8779 34.3667 33.5779 33.8667 32.0667 33.8667C30.5556 33.8667 29.2556 34.3667 28.1667 35.3667C27.0779 36.3667 26.5334 37.6 26.5334 39.0667C26.5334 43.3778 27.8112 46.9778 30.3667 49.8667C32.9223 52.7556 36.2223 54.7778 40.2667 55.9334C40.6667 56.0667 40.9334 56.2889 41.0667 56.6C41.2001 56.9111 41.2223 57.2445 41.1334 57.6C41.0445 57.9111 40.8667 58.1778 40.6001 58.4C40.3334 58.6222 40.0001 58.6889 39.6001 58.6C34.9779 57.4445 31.2001 55.1445 28.2667 51.7C25.3334 48.2556 23.8667 44.0445 23.8667 39.0667C23.8667 36.8445 24.6667 34.9778 26.2667 33.4667C27.8667 31.9556 29.8001 31.2 32.0667 31.2C34.3334 31.2 36.2667 31.9556 37.8667 33.4667C39.4667 34.9778 40.2667 36.8445 40.2667 39.0667C40.2667 40.5334 40.8223 41.7667 41.9334 42.7667C43.0445 43.7667 44.3556 44.2667 45.8667 44.2667C47.3779 44.2667 48.6667 43.7667 49.7334 42.7667C50.8001 41.7667 51.3334 40.5334 51.3334 39.0667C51.3334 33.9111 49.4445 29.5778 45.6667 26.0667C41.889 22.5556 37.3779 20.8 32.1334 20.8C26.889 20.8 22.3779 22.5556 18.6001 26.0667C14.8223 29.5778 12.9334 33.8889 12.9334 39C12.9334 40.0667 13.0334 41.4 13.2334 43C13.4334 44.6 13.9112 46.4667 14.6667 48.6C14.8001 49 14.789 49.3556 14.6334 49.6667C14.4779 49.9778 14.2223 50.2 13.8667 50.3334C13.5112 50.4667 13.1667 50.4556 12.8334 50.3C12.5001 50.1445 12.2667 49.8889 12.1334 49.5334C11.4667 47.8 10.989 46.0778 10.7001 44.3667C10.4112 42.6556 10.2667 40.8889 10.2667 39.0667C10.2667 33.1556 12.4112 28.2 16.7001 24.2C20.989 20.2 26.1112 18.2 32.0667 18.2ZM32.0667 5.40002C34.9112 5.40002 37.689 5.74447 40.4001 6.43336C43.1112 7.12225 45.7334 8.11114 48.2667 9.40002C48.6667 9.62225 48.9001 9.88891 48.9667 10.2C49.0334 10.5111 49.0001 10.8222 48.8667 11.1334C48.7334 11.4445 48.5112 11.6889 48.2001 11.8667C47.889 12.0445 47.5112 12.0222 47.0667 11.8C44.7112 10.6 42.2779 9.6778 39.7667 9.03336C37.2556 8.38891 34.689 8.06669 32.0667 8.06669C29.489 8.06669 26.9556 8.36669 24.4667 8.96669C21.9779 9.56669 19.6001 10.5111 17.3334 11.8C16.9779 12.0222 16.6223 12.0778 16.2667 11.9667C15.9112 11.8556 15.6445 11.6222 15.4667 11.2667C15.289 10.9111 15.2445 10.5889 15.3334 10.3C15.4223 10.0111 15.6445 9.75558 16.0001 9.53336C18.489 8.20002 21.089 7.1778 23.8001 6.46669C26.5112 5.75558 29.2667 5.40002 32.0667 5.40002ZM32.0667 24.6667C36.2001 24.6667 39.7556 26.0556 42.7334 28.8334C45.7112 31.6111 47.2001 35.0222 47.2001 39.0667C47.2001 39.4667 47.0779 39.7889 46.8334 40.0334C46.589 40.2778 46.2667 40.4 45.8667 40.4C45.5112 40.4 45.2001 40.2778 44.9334 40.0334C44.6667 39.7889 44.5334 39.4667 44.5334 39.0667C44.5334 35.7334 43.3001 32.9445 40.8334 30.7C38.3667 28.4556 35.4445 27.3334 32.0667 27.3334C28.689 27.3334 25.789 28.4556 23.3667 30.7C20.9445 32.9445 19.7334 35.7334 19.7334 39.0667C19.7334 42.6667 20.3556 45.7222 21.6001 48.2334C22.8445 50.7445 24.6667 53.2667 27.0667 55.8C27.3334 56.0667 27.4667 56.3778 27.4667 56.7334C27.4667 57.0889 27.3334 57.4 27.0667 57.6667C26.8001 57.9334 26.489 58.0667 26.1334 58.0667C25.7779 58.0667 25.4667 57.9334 25.2001 57.6667C22.5779 54.9111 20.5667 52.1 19.1667 49.2334C17.7667 46.3667 17.0667 42.9778 17.0667 39.0667C17.0667 35.0222 18.5334 31.6111 21.4667 28.8334C24.4001 26.0556 27.9334 24.6667 32.0667 24.6667ZM32.0001 37.7334C32.4001 37.7334 32.7223 37.8667 32.9667 38.1334C33.2112 38.4 33.3334 38.7111 33.3334 39.0667C33.3334 42.4 34.5334 45.1334 36.9334 47.2667C39.3334 49.4 42.1334 50.4667 45.3334 50.4667C45.6001 50.4667 45.9779 50.4445 46.4667 50.4C46.9556 50.3556 47.4667 50.2889 48.0001 50.2C48.4001 50.1111 48.7445 50.1667 49.0334 50.3667C49.3223 50.5667 49.5112 50.8667 49.6001 51.2667C49.689 51.6222 49.6223 51.9334 49.4001 52.2C49.1779 52.4667 48.889 52.6445 48.5334 52.7334C47.7334 52.9556 47.0334 53.0778 46.4334 53.1C45.8334 53.1222 45.4667 53.1334 45.3334 53.1334C41.3779 53.1334 37.9445 51.8 35.0334 49.1334C32.1223 46.4667 30.6667 43.1111 30.6667 39.0667C30.6667 38.7111 30.789 38.4 31.0334 38.1334C31.2779 37.8667 31.6001 37.7334 32.0001 37.7334Z" fill="black" fill-opacity="0.2"/>
</g>
</svg>
