<svg width="100" height="132" viewBox="0 0 100 132" fill="none" xmlns="http://www.w3.org/2000/svg">
<path d="M12.5001 131.5C9.06262 131.5 6.11991 130.276 3.672 127.828C1.22408 125.38 0.00012207 122.437 0.00012207 119V56.4999C0.00012207 53.0624 1.22408 50.1197 3.672 47.6718C6.11991 45.2238 9.06262 43.9999 12.5001 43.9999H18.7501V31.4999C18.7501 22.854 21.797 15.4843 27.8907 9.3905C33.9845 3.29675 41.3543 0.249878 50.0001 0.249878C58.646 0.249878 66.0158 3.29675 72.1095 9.3905C78.2033 15.4843 81.2501 22.854 81.2501 31.4999V43.9999H87.5001C90.9376 43.9999 93.8803 45.2238 96.3283 47.6718C98.7762 50.1197 100 53.0624 100 56.4999V119C100 122.437 98.7762 125.38 96.3283 127.828C93.8803 130.276 90.9376 131.5 87.5001 131.5H12.5001ZM12.5001 119H87.5001V56.4999H12.5001V119ZM50.0001 100.25C53.4376 100.25 56.3803 99.0259 58.8283 96.578C61.2762 94.1301 62.5001 91.1874 62.5001 87.7499C62.5001 84.3124 61.2762 81.3697 58.8283 78.9218C56.3803 76.4738 53.4376 75.2499 50.0001 75.2499C46.5626 75.2499 43.6199 76.4738 41.172 78.9218C38.7241 81.3697 37.5001 84.3124 37.5001 87.7499C37.5001 91.1874 38.7241 94.1301 41.172 96.578C43.6199 99.0259 46.5626 100.25 50.0001 100.25ZM31.2501 43.9999H68.7501V31.4999C68.7501 26.2915 66.9272 21.8645 63.2814 18.2186C59.6355 14.5728 55.2085 12.7499 50.0001 12.7499C44.7918 12.7499 40.3647 14.5728 36.7189 18.2186C33.073 21.8645 31.2501 26.2915 31.2501 31.4999V43.9999Z" fill="#F3F0F5"/>
</svg>
