<?xml version="1.0" encoding="UTF-8"?>
<svg id="Logo" xmlns="http://www.w3.org/2000/svg" viewBox="0 0 1122.99 210.05">
  <defs>
    <style>
      .cls-1 {
        fill: #0b090a;
      }
    </style>
  </defs>
  <path class="cls-1" d="M50.5,54.76h76.87c19.44,0,24.42.6,30.75,3.77,10.1,4.97,13.87,14.17,13.87,33.16s-3.47,29.09-11.76,34.21c-5.88,3.62-12.66,4.67-30.15,4.67h-49.14v24.72h-30.45V54.76ZM125.41,106.16c12.51,0,16.13-2.71,16.13-12.21,0-12.06-3.01-14.77-16.13-14.77h-44.46v26.98h44.46Z"/>
  <path class="cls-1" d="M448.45,54.76h86.67c17.79,0,25.62,1.51,31.35,6.33,5.88,4.67,8.59,13.26,8.59,26.83,0,18.69-4.52,26.08-17.33,28.94,12.51,2.11,16.28,7.38,15.98,22.61v15.83h-31.05v-12.51c-.15-10.85-3.17-13.11-16.88-12.81h-46.88v25.32h-30.45V54.76ZM526.68,105.4c14.77,0,17.64-1.81,17.64-11.76,0-6.48-.6-9.19-2.56-11.3-2.26-2.41-4.82-2.87-14.02-2.87h-48.84v25.93h47.78Z"/>
  <path class="cls-1" d="M670.1,79.63h-44.77v-24.87h120.13v24.87h-44.77v75.67h-30.6v-75.67Z"/>
  <path class="cls-1" d="M827.12,54.76h41l55.01,100.54h-33.46l-9.95-17.94h-64.81l-9.65,17.94h-34.67l56.52-100.54ZM869.02,116.41l-21.71-40.09-21.4,40.09h43.11Z"/>
  <path class="cls-1" d="M973.17,54.76h30.6v75.66h69.18v24.87h-99.78V54.76Z"/>
  <path class="cls-1" d="M347.87,29.64h-75.3c0,47.95-3.5,50.29-50.32,50.29v50.23c46.81,0,50.32,2.34,50.32,50.29h75.3c0-47.95,3.5-50.29,50.32-50.29v-50.23c-46.81,0-50.32-2.34-50.32-50.29ZM322.79,130.16h-25.13v-50.22h25.13v50.22Z"/>
</svg>