<svg width="339" height="50" viewBox="0 0 339 50" fill="none" xmlns="http://www.w3.org/2000/svg">
<path d="M0.00331498 8.29883H25.4898C31.9352 8.29883 33.5864 8.49707 35.6851 9.54447C39.0338 11.1866 40.2837 14.2264 40.2837 20.5008C40.2837 26.7753 39.1332 30.1125 36.3847 31.8042C34.4351 33.0002 32.1872 33.3472 26.3883 33.3472H10.0958V41.5149H0V8.29883H0.00331498ZM24.84 25.2819C28.9877 25.2819 30.1879 24.3865 30.1879 21.2476C30.1879 17.2628 29.19 16.3674 24.84 16.3674H10.0991V25.2819H24.84Z" fill="#F3F0F5"/>
<path d="M131.945 8.29883H160.681C166.579 8.29883 169.175 8.79775 171.075 10.3903C173.025 11.9333 173.923 14.7715 173.923 19.2552C173.923 25.4306 172.424 27.8723 168.177 28.8173C172.325 29.5144 173.575 31.2557 173.475 36.2878V41.5182H163.181V37.3848C163.131 33.7998 162.13 33.0531 157.584 33.1522H142.041V41.5182H131.945V8.29883ZM157.882 25.0308C162.78 25.0308 163.731 24.4327 163.731 21.1451C163.731 19.0041 163.532 18.1087 162.882 17.4115C162.133 16.6152 161.284 16.4632 158.234 16.4632H142.041V25.0308H157.882Z" fill="#F3F0F5"/>
<path d="M205.434 16.5161H190.59V8.29883H230.42V16.5161H215.576V41.5182H205.43V16.5161H205.434Z" fill="#F3F0F5"/>
<path d="M257.494 8.29883H271.088L289.327 41.5182H278.233L274.934 35.5906H253.446L250.246 41.5182H238.751L257.491 8.29883H257.494ZM271.386 28.6686L264.188 15.4225L257.093 28.6686H271.386Z" fill="#F3F0F5"/>
<path d="M305.917 8.29883H316.063V33.2976H339V41.5149H305.917V8.29883Z" fill="#F3F0F5"/>
<path d="M98.5975 0H73.6315C73.6315 15.8431 72.4711 16.6163 56.9478 16.6163V33.2128C72.4678 33.2128 73.6315 33.9859 73.6315 49.829H98.5975C98.5975 33.9859 99.7579 33.2128 115.281 33.2128V16.6163C99.7612 16.6163 98.5975 15.8431 98.5975 0ZM90.2821 33.2128H81.9502V16.6196H90.2821V33.2128Z" fill="#F3F0F5"/>
</svg>
