<svg width="246" height="210" viewBox="0 0 246 210" fill="none" xmlns="http://www.w3.org/2000/svg">
<path d="M174.011 1.5C174.029 17.4525 174.358 29.8097 175.814 39.3369C177.317 49.1665 180.048 56.2148 185.089 61.127C190.126 66.0356 197.249 68.5948 207.03 69.9609C216.506 71.2844 228.703 71.5115 244.313 71.5244V138.475C228.7 138.488 216.501 138.716 207.024 140.039C197.243 141.405 190.12 143.965 185.084 148.873C180.044 153.785 177.314 160.834 175.812 170.663C174.358 180.19 174.029 192.548 174.011 208.5H71.8027C71.7841 192.547 71.455 180.19 69.999 170.663C68.4968 160.833 65.7646 153.785 60.7236 148.873C55.6863 143.965 48.5641 141.405 38.7832 140.039C29.3072 138.716 17.1101 138.488 1.5 138.475V71.5244C17.1136 71.5115 29.3124 71.2845 38.7891 69.9609C48.5707 68.5948 55.693 66.0356 60.7295 61.127C65.7696 56.2148 68.4999 49.1664 70.001 39.3369C71.4559 29.8097 71.7842 17.4525 71.8027 1.5H174.011Z" stroke="#FFED00" stroke-width="3"/>
</svg>
