<svg width="379" height="302" viewBox="0 0 379 302" fill="none" xmlns="http://www.w3.org/2000/svg">
<path d="M194.399 117H168.464C168.464 133.458 167.259 134.261 151.133 134.261V151.502C167.255 151.502 168.464 152.305 168.464 168.763H194.399C194.399 152.305 195.605 151.502 211.73 151.502V134.261C195.608 134.261 194.399 133.458 194.399 117ZM185.761 151.502H177.106V134.265H185.761V151.502Z" fill="#141416"/>
<path d="M194.399 117H168.464C168.464 133.458 167.259 134.261 151.133 134.261V151.502C167.255 151.502 168.464 152.305 168.464 168.763H194.399C194.399 152.305 195.605 151.502 211.73 151.502V134.261C195.608 134.261 194.399 133.458 194.399 117ZM185.761 151.502H177.106V134.265H185.761V151.502Z" fill="black" fill-opacity="0.2"/>
<circle cx="181.633" cy="143" r="142.5" stroke="#141416"/>
<circle cx="181.633" cy="143" r="142.5" stroke="black" stroke-opacity="0.2"/>
<path d="M2.61133 5.00586C3.90104 5.00586 4.84212 5.25879 5.43457 5.76465C6.03158 6.26595 6.33008 6.986 6.33008 7.9248C6.33008 8.34863 6.25944 8.75195 6.11816 9.13477C5.98145 9.51302 5.75814 9.84798 5.44824 10.1396C5.13835 10.4268 4.73047 10.6546 4.22461 10.8232C3.72331 10.9873 3.10807 11.0693 2.37891 11.0693H1.16211V15H0V5.00586H2.61133ZM2.50195 5.99707H1.16211V10.0713H2.24902C2.88704 10.0713 3.41797 10.0029 3.8418 9.86621C4.27018 9.72949 4.59147 9.50846 4.80566 9.20312C5.01986 8.89323 5.12695 8.48307 5.12695 7.97266C5.12695 7.30729 4.91504 6.81283 4.49121 6.48926C4.06738 6.16113 3.4043 5.99707 2.50195 5.99707ZM9.38574 4.36328V7.54199C9.38574 7.72428 9.38118 7.90885 9.37207 8.0957C9.36296 8.27799 9.34701 8.44661 9.32422 8.60156H9.39941C9.55436 8.33724 9.75033 8.11621 9.9873 7.93848C10.2288 7.75618 10.5023 7.61947 10.8076 7.52832C11.113 7.43262 11.4365 7.38477 11.7783 7.38477C12.3799 7.38477 12.8812 7.48047 13.2822 7.67188C13.6878 7.86328 13.9909 8.15951 14.1914 8.56055C14.3965 8.96159 14.499 9.48112 14.499 10.1191V15H13.3779V10.1943C13.3779 9.56999 13.2344 9.10286 12.9473 8.79297C12.6647 8.48307 12.2295 8.32812 11.6416 8.32812C11.0856 8.32812 10.6413 8.43522 10.3086 8.64941C9.98047 8.85905 9.74349 9.16895 9.59766 9.5791C9.45638 9.98926 9.38574 10.4906 9.38574 11.083V15H8.25098V4.36328H9.38574ZM17.9717 7.50781V15H16.8369V7.50781H17.9717ZM17.418 4.70508C17.6048 4.70508 17.7643 4.7666 17.8965 4.88965C18.0332 5.00814 18.1016 5.19499 18.1016 5.4502C18.1016 5.70085 18.0332 5.8877 17.8965 6.01074C17.7643 6.13379 17.6048 6.19531 17.418 6.19531C17.222 6.19531 17.0579 6.13379 16.9258 6.01074C16.7982 5.8877 16.7344 5.70085 16.7344 5.4502C16.7344 5.19499 16.7982 5.00814 16.9258 4.88965C17.0579 4.7666 17.222 4.70508 17.418 4.70508ZM25.2246 12.9492C25.2246 13.4277 25.1038 13.8311 24.8623 14.1592C24.6253 14.4827 24.2835 14.7266 23.8369 14.8906C23.3949 15.0547 22.8662 15.1367 22.251 15.1367C21.7269 15.1367 21.2734 15.0957 20.8906 15.0137C20.5078 14.9316 20.1729 14.8154 19.8857 14.665V13.6191C20.1911 13.7695 20.5557 13.9062 20.9795 14.0293C21.4033 14.1523 21.8363 14.2139 22.2783 14.2139C22.9255 14.2139 23.3949 14.109 23.6865 13.8994C23.9782 13.6898 24.124 13.4049 24.124 13.0449C24.124 12.8398 24.0648 12.6598 23.9463 12.5049C23.8324 12.3454 23.6387 12.1927 23.3652 12.0469C23.0918 11.8965 22.7135 11.7324 22.2305 11.5547C21.752 11.3724 21.3372 11.1924 20.9863 11.0146C20.64 10.8324 20.3711 10.6113 20.1797 10.3516C19.9928 10.0918 19.8994 9.75456 19.8994 9.33984C19.8994 8.70638 20.1546 8.22103 20.665 7.88379C21.18 7.54199 21.8545 7.37109 22.6885 7.37109C23.1396 7.37109 23.5612 7.41667 23.9531 7.50781C24.3496 7.5944 24.7188 7.71289 25.0605 7.86328L24.6777 8.77246C24.3678 8.6403 24.0374 8.52865 23.6865 8.4375C23.3356 8.34635 22.9779 8.30078 22.6133 8.30078C22.0892 8.30078 21.6859 8.38737 21.4033 8.56055C21.1253 8.73372 20.9863 8.9707 20.9863 9.27148C20.9863 9.50391 21.0501 9.69531 21.1777 9.8457C21.3099 9.99609 21.5195 10.1374 21.8066 10.2695C22.0938 10.4017 22.472 10.5566 22.9414 10.7344C23.4108 10.9076 23.8164 11.0876 24.1582 11.2744C24.5 11.4567 24.762 11.68 24.9443 11.9443C25.1312 12.2041 25.2246 12.5391 25.2246 12.9492ZM28.1846 4.36328V7.54199C28.1846 7.72428 28.18 7.90885 28.1709 8.0957C28.1618 8.27799 28.1458 8.44661 28.123 8.60156H28.1982C28.3532 8.33724 28.5492 8.11621 28.7861 7.93848C29.0277 7.75618 29.3011 7.61947 29.6064 7.52832C29.9118 7.43262 30.2354 7.38477 30.5771 7.38477C31.1787 7.38477 31.68 7.48047 32.0811 7.67188C32.4867 7.86328 32.7897 8.15951 32.9902 8.56055C33.1953 8.96159 33.2979 9.48112 33.2979 10.1191V15H32.1768V10.1943C32.1768 9.56999 32.0332 9.10286 31.7461 8.79297C31.4635 8.48307 31.0283 8.32812 30.4404 8.32812C29.8844 8.32812 29.4401 8.43522 29.1074 8.64941C28.7793 8.85905 28.5423 9.16895 28.3965 9.5791C28.2552 9.98926 28.1846 10.4906 28.1846 11.083V15H27.0498V4.36328H28.1846ZM36.7705 7.50781V15H35.6357V7.50781H36.7705ZM36.2168 4.70508C36.4036 4.70508 36.5632 4.7666 36.6953 4.88965C36.832 5.00814 36.9004 5.19499 36.9004 5.4502C36.9004 5.70085 36.832 5.8877 36.6953 6.01074C36.5632 6.13379 36.4036 6.19531 36.2168 6.19531C36.0208 6.19531 35.8568 6.13379 35.7246 6.01074C35.597 5.8877 35.5332 5.70085 35.5332 5.4502C35.5332 5.19499 35.597 5.00814 35.7246 4.88965C35.8568 4.7666 36.0208 4.70508 36.2168 4.70508ZM42.7246 7.37109C43.6133 7.37109 44.2855 7.58984 44.7412 8.02734C45.1969 8.46029 45.4248 9.15755 45.4248 10.1191V15H44.3037V10.1943C44.3037 9.56999 44.1602 9.10286 43.873 8.79297C43.5905 8.48307 43.1553 8.32812 42.5674 8.32812C41.738 8.32812 41.1546 8.56283 40.8174 9.03223C40.4801 9.50163 40.3115 10.1829 40.3115 11.0762V15H39.1768V7.50781H40.0928L40.2637 8.58789H40.3252C40.4847 8.32357 40.6875 8.10254 40.9336 7.9248C41.1797 7.74251 41.4554 7.60579 41.7607 7.51465C42.0661 7.41895 42.3874 7.37109 42.7246 7.37109ZM49.8545 18.3633C48.8701 18.3633 48.1113 18.1787 47.5781 17.8096C47.0449 17.445 46.7783 16.9323 46.7783 16.2715C46.7783 15.8021 46.9264 15.401 47.2227 15.0684C47.5234 14.7357 47.9382 14.5146 48.4668 14.4053C48.2708 14.3141 48.1022 14.1774 47.9609 13.9951C47.8242 13.8128 47.7559 13.6032 47.7559 13.3662C47.7559 13.0928 47.8311 12.8535 47.9814 12.6484C48.1364 12.4388 48.3711 12.2383 48.6855 12.0469C48.2936 11.8874 47.9746 11.6185 47.7285 11.2402C47.487 10.8574 47.3662 10.4131 47.3662 9.90723C47.3662 9.36947 47.4779 8.91146 47.7012 8.5332C47.9245 8.15039 48.248 7.85872 48.6719 7.6582C49.0957 7.45768 49.6084 7.35742 50.21 7.35742C50.3421 7.35742 50.4743 7.36426 50.6064 7.37793C50.7432 7.38704 50.873 7.40299 50.9961 7.42578C51.1191 7.44401 51.2262 7.4668 51.3174 7.49414H53.8877V8.22559L52.5068 8.39648C52.6436 8.57422 52.7575 8.78841 52.8486 9.03906C52.9398 9.28971 52.9854 9.56771 52.9854 9.87305C52.9854 10.6204 52.7324 11.2152 52.2266 11.6572C51.7207 12.0947 51.0257 12.3135 50.1416 12.3135C49.932 12.3135 49.7178 12.2952 49.499 12.2588C49.2757 12.3818 49.1048 12.5186 48.9863 12.6689C48.8724 12.8193 48.8154 12.9925 48.8154 13.1885C48.8154 13.3343 48.8587 13.4505 48.9453 13.5371C49.0365 13.6237 49.1663 13.6875 49.335 13.7285C49.5036 13.765 49.7064 13.7832 49.9434 13.7832H51.2627C52.0785 13.7832 52.7028 13.9541 53.1357 14.2959C53.5732 14.6377 53.792 15.1367 53.792 15.793C53.792 16.6224 53.4548 17.2581 52.7803 17.7002C52.1058 18.1423 51.1305 18.3633 49.8545 18.3633ZM49.8887 17.4746C50.5085 17.4746 51.0212 17.4108 51.4268 17.2832C51.8369 17.1602 52.1423 16.9801 52.3428 16.7432C52.5479 16.5107 52.6504 16.2327 52.6504 15.9092C52.6504 15.6084 52.582 15.3805 52.4453 15.2256C52.3086 15.0752 52.1081 14.9749 51.8438 14.9248C51.5794 14.8701 51.2559 14.8428 50.873 14.8428H49.5742C49.237 14.8428 48.943 14.8952 48.6924 15C48.4417 15.1048 48.248 15.2598 48.1113 15.4648C47.9792 15.6699 47.9131 15.9251 47.9131 16.2305C47.9131 16.6361 48.084 16.9437 48.4258 17.1533C48.7676 17.3675 49.2552 17.4746 49.8887 17.4746ZM50.1826 11.4863C50.7249 11.4863 51.1328 11.3496 51.4062 11.0762C51.6797 10.8027 51.8164 10.404 51.8164 9.87988C51.8164 9.31934 51.6774 8.90007 51.3994 8.62207C51.1214 8.33952 50.7113 8.19824 50.1689 8.19824C49.6494 8.19824 49.2484 8.34408 48.9658 8.63574C48.6878 8.92285 48.5488 9.3444 48.5488 9.90039C48.5488 10.4108 48.6901 10.8027 48.9727 11.0762C49.2552 11.3496 49.6585 11.4863 50.1826 11.4863Z" fill="#141416"/>
<path d="M2.61133 5.00586C3.90104 5.00586 4.84212 5.25879 5.43457 5.76465C6.03158 6.26595 6.33008 6.986 6.33008 7.9248C6.33008 8.34863 6.25944 8.75195 6.11816 9.13477C5.98145 9.51302 5.75814 9.84798 5.44824 10.1396C5.13835 10.4268 4.73047 10.6546 4.22461 10.8232C3.72331 10.9873 3.10807 11.0693 2.37891 11.0693H1.16211V15H0V5.00586H2.61133ZM2.50195 5.99707H1.16211V10.0713H2.24902C2.88704 10.0713 3.41797 10.0029 3.8418 9.86621C4.27018 9.72949 4.59147 9.50846 4.80566 9.20312C5.01986 8.89323 5.12695 8.48307 5.12695 7.97266C5.12695 7.30729 4.91504 6.81283 4.49121 6.48926C4.06738 6.16113 3.4043 5.99707 2.50195 5.99707ZM9.38574 4.36328V7.54199C9.38574 7.72428 9.38118 7.90885 9.37207 8.0957C9.36296 8.27799 9.34701 8.44661 9.32422 8.60156H9.39941C9.55436 8.33724 9.75033 8.11621 9.9873 7.93848C10.2288 7.75618 10.5023 7.61947 10.8076 7.52832C11.113 7.43262 11.4365 7.38477 11.7783 7.38477C12.3799 7.38477 12.8812 7.48047 13.2822 7.67188C13.6878 7.86328 13.9909 8.15951 14.1914 8.56055C14.3965 8.96159 14.499 9.48112 14.499 10.1191V15H13.3779V10.1943C13.3779 9.56999 13.2344 9.10286 12.9473 8.79297C12.6647 8.48307 12.2295 8.32812 11.6416 8.32812C11.0856 8.32812 10.6413 8.43522 10.3086 8.64941C9.98047 8.85905 9.74349 9.16895 9.59766 9.5791C9.45638 9.98926 9.38574 10.4906 9.38574 11.083V15H8.25098V4.36328H9.38574ZM17.9717 7.50781V15H16.8369V7.50781H17.9717ZM17.418 4.70508C17.6048 4.70508 17.7643 4.7666 17.8965 4.88965C18.0332 5.00814 18.1016 5.19499 18.1016 5.4502C18.1016 5.70085 18.0332 5.8877 17.8965 6.01074C17.7643 6.13379 17.6048 6.19531 17.418 6.19531C17.222 6.19531 17.0579 6.13379 16.9258 6.01074C16.7982 5.8877 16.7344 5.70085 16.7344 5.4502C16.7344 5.19499 16.7982 5.00814 16.9258 4.88965C17.0579 4.7666 17.222 4.70508 17.418 4.70508ZM25.2246 12.9492C25.2246 13.4277 25.1038 13.8311 24.8623 14.1592C24.6253 14.4827 24.2835 14.7266 23.8369 14.8906C23.3949 15.0547 22.8662 15.1367 22.251 15.1367C21.7269 15.1367 21.2734 15.0957 20.8906 15.0137C20.5078 14.9316 20.1729 14.8154 19.8857 14.665V13.6191C20.1911 13.7695 20.5557 13.9062 20.9795 14.0293C21.4033 14.1523 21.8363 14.2139 22.2783 14.2139C22.9255 14.2139 23.3949 14.109 23.6865 13.8994C23.9782 13.6898 24.124 13.4049 24.124 13.0449C24.124 12.8398 24.0648 12.6598 23.9463 12.5049C23.8324 12.3454 23.6387 12.1927 23.3652 12.0469C23.0918 11.8965 22.7135 11.7324 22.2305 11.5547C21.752 11.3724 21.3372 11.1924 20.9863 11.0146C20.64 10.8324 20.3711 10.6113 20.1797 10.3516C19.9928 10.0918 19.8994 9.75456 19.8994 9.33984C19.8994 8.70638 20.1546 8.22103 20.665 7.88379C21.18 7.54199 21.8545 7.37109 22.6885 7.37109C23.1396 7.37109 23.5612 7.41667 23.9531 7.50781C24.3496 7.5944 24.7188 7.71289 25.0605 7.86328L24.6777 8.77246C24.3678 8.6403 24.0374 8.52865 23.6865 8.4375C23.3356 8.34635 22.9779 8.30078 22.6133 8.30078C22.0892 8.30078 21.6859 8.38737 21.4033 8.56055C21.1253 8.73372 20.9863 8.9707 20.9863 9.27148C20.9863 9.50391 21.0501 9.69531 21.1777 9.8457C21.3099 9.99609 21.5195 10.1374 21.8066 10.2695C22.0938 10.4017 22.472 10.5566 22.9414 10.7344C23.4108 10.9076 23.8164 11.0876 24.1582 11.2744C24.5 11.4567 24.762 11.68 24.9443 11.9443C25.1312 12.2041 25.2246 12.5391 25.2246 12.9492ZM28.1846 4.36328V7.54199C28.1846 7.72428 28.18 7.90885 28.1709 8.0957C28.1618 8.27799 28.1458 8.44661 28.123 8.60156H28.1982C28.3532 8.33724 28.5492 8.11621 28.7861 7.93848C29.0277 7.75618 29.3011 7.61947 29.6064 7.52832C29.9118 7.43262 30.2354 7.38477 30.5771 7.38477C31.1787 7.38477 31.68 7.48047 32.0811 7.67188C32.4867 7.86328 32.7897 8.15951 32.9902 8.56055C33.1953 8.96159 33.2979 9.48112 33.2979 10.1191V15H32.1768V10.1943C32.1768 9.56999 32.0332 9.10286 31.7461 8.79297C31.4635 8.48307 31.0283 8.32812 30.4404 8.32812C29.8844 8.32812 29.4401 8.43522 29.1074 8.64941C28.7793 8.85905 28.5423 9.16895 28.3965 9.5791C28.2552 9.98926 28.1846 10.4906 28.1846 11.083V15H27.0498V4.36328H28.1846ZM36.7705 7.50781V15H35.6357V7.50781H36.7705ZM36.2168 4.70508C36.4036 4.70508 36.5632 4.7666 36.6953 4.88965C36.832 5.00814 36.9004 5.19499 36.9004 5.4502C36.9004 5.70085 36.832 5.8877 36.6953 6.01074C36.5632 6.13379 36.4036 6.19531 36.2168 6.19531C36.0208 6.19531 35.8568 6.13379 35.7246 6.01074C35.597 5.8877 35.5332 5.70085 35.5332 5.4502C35.5332 5.19499 35.597 5.00814 35.7246 4.88965C35.8568 4.7666 36.0208 4.70508 36.2168 4.70508ZM42.7246 7.37109C43.6133 7.37109 44.2855 7.58984 44.7412 8.02734C45.1969 8.46029 45.4248 9.15755 45.4248 10.1191V15H44.3037V10.1943C44.3037 9.56999 44.1602 9.10286 43.873 8.79297C43.5905 8.48307 43.1553 8.32812 42.5674 8.32812C41.738 8.32812 41.1546 8.56283 40.8174 9.03223C40.4801 9.50163 40.3115 10.1829 40.3115 11.0762V15H39.1768V7.50781H40.0928L40.2637 8.58789H40.3252C40.4847 8.32357 40.6875 8.10254 40.9336 7.9248C41.1797 7.74251 41.4554 7.60579 41.7607 7.51465C42.0661 7.41895 42.3874 7.37109 42.7246 7.37109ZM49.8545 18.3633C48.8701 18.3633 48.1113 18.1787 47.5781 17.8096C47.0449 17.445 46.7783 16.9323 46.7783 16.2715C46.7783 15.8021 46.9264 15.401 47.2227 15.0684C47.5234 14.7357 47.9382 14.5146 48.4668 14.4053C48.2708 14.3141 48.1022 14.1774 47.9609 13.9951C47.8242 13.8128 47.7559 13.6032 47.7559 13.3662C47.7559 13.0928 47.8311 12.8535 47.9814 12.6484C48.1364 12.4388 48.3711 12.2383 48.6855 12.0469C48.2936 11.8874 47.9746 11.6185 47.7285 11.2402C47.487 10.8574 47.3662 10.4131 47.3662 9.90723C47.3662 9.36947 47.4779 8.91146 47.7012 8.5332C47.9245 8.15039 48.248 7.85872 48.6719 7.6582C49.0957 7.45768 49.6084 7.35742 50.21 7.35742C50.3421 7.35742 50.4743 7.36426 50.6064 7.37793C50.7432 7.38704 50.873 7.40299 50.9961 7.42578C51.1191 7.44401 51.2262 7.4668 51.3174 7.49414H53.8877V8.22559L52.5068 8.39648C52.6436 8.57422 52.7575 8.78841 52.8486 9.03906C52.9398 9.28971 52.9854 9.56771 52.9854 9.87305C52.9854 10.6204 52.7324 11.2152 52.2266 11.6572C51.7207 12.0947 51.0257 12.3135 50.1416 12.3135C49.932 12.3135 49.7178 12.2952 49.499 12.2588C49.2757 12.3818 49.1048 12.5186 48.9863 12.6689C48.8724 12.8193 48.8154 12.9925 48.8154 13.1885C48.8154 13.3343 48.8587 13.4505 48.9453 13.5371C49.0365 13.6237 49.1663 13.6875 49.335 13.7285C49.5036 13.765 49.7064 13.7832 49.9434 13.7832H51.2627C52.0785 13.7832 52.7028 13.9541 53.1357 14.2959C53.5732 14.6377 53.792 15.1367 53.792 15.793C53.792 16.6224 53.4548 17.2581 52.7803 17.7002C52.1058 18.1423 51.1305 18.3633 49.8545 18.3633ZM49.8887 17.4746C50.5085 17.4746 51.0212 17.4108 51.4268 17.2832C51.8369 17.1602 52.1423 16.9801 52.3428 16.7432C52.5479 16.5107 52.6504 16.2327 52.6504 15.9092C52.6504 15.6084 52.582 15.3805 52.4453 15.2256C52.3086 15.0752 52.1081 14.9749 51.8438 14.9248C51.5794 14.8701 51.2559 14.8428 50.873 14.8428H49.5742C49.237 14.8428 48.943 14.8952 48.6924 15C48.4417 15.1048 48.248 15.2598 48.1113 15.4648C47.9792 15.6699 47.9131 15.9251 47.9131 16.2305C47.9131 16.6361 48.084 16.9437 48.4258 17.1533C48.7676 17.3675 49.2552 17.4746 49.8887 17.4746ZM50.1826 11.4863C50.7249 11.4863 51.1328 11.3496 51.4062 11.0762C51.6797 10.8027 51.8164 10.404 51.8164 9.87988C51.8164 9.31934 51.6774 8.90007 51.3994 8.62207C51.1214 8.33952 50.7113 8.19824 50.1689 8.19824C49.6494 8.19824 49.2484 8.34408 48.9658 8.63574C48.6878 8.92285 48.5488 9.3444 48.5488 9.90039C48.5488 10.4108 48.6901 10.8027 48.9727 11.0762C49.2552 11.3496 49.6585 11.4863 50.1826 11.4863Z" fill="black" fill-opacity="0.2"/>
<path d="M7.93652 295.907C7.93652 297.033 7.73145 297.974 7.32129 298.73C6.91113 299.482 6.31641 300.05 5.53711 300.433C4.76237 300.811 3.82129 301 2.71387 301H0V291.006H3.01465C4.03092 291.006 4.90592 291.193 5.63965 291.566C6.37337 291.936 6.93848 292.485 7.33496 293.214C7.736 293.938 7.93652 294.836 7.93652 295.907ZM6.71289 295.948C6.71289 295.05 6.5625 294.31 6.26172 293.727C5.96549 293.143 5.52799 292.71 4.94922 292.428C4.375 292.141 3.6709 291.997 2.83691 291.997H1.16211V300.002H2.57715C3.95345 300.002 4.98568 299.662 5.67383 298.983C6.36654 298.304 6.71289 297.293 6.71289 295.948ZM12.79 293.385C13.6833 293.385 14.3464 293.585 14.7793 293.986C15.2122 294.387 15.4287 295.028 15.4287 295.907V301H14.6016L14.3828 299.893H14.3281C14.1185 300.166 13.8997 300.396 13.6719 300.583C13.444 300.765 13.1797 300.904 12.8789 301C12.5827 301.091 12.2181 301.137 11.7852 301.137C11.3294 301.137 10.9238 301.057 10.5684 300.897C10.2174 300.738 9.93945 300.496 9.73438 300.173C9.53385 299.849 9.43359 299.439 9.43359 298.942C9.43359 298.195 9.72982 297.621 10.3223 297.22C10.9147 296.819 11.8171 296.6 13.0293 296.563L14.3213 296.509V296.051C14.3213 295.404 14.1823 294.95 13.9043 294.69C13.6263 294.431 13.2344 294.301 12.7285 294.301C12.3366 294.301 11.9629 294.358 11.6074 294.472C11.252 294.586 10.9147 294.72 10.5957 294.875L10.2471 294.014C10.5843 293.84 10.9717 293.692 11.4092 293.569C11.8467 293.446 12.307 293.385 12.79 293.385ZM14.3076 297.309L13.166 297.356C12.2318 297.393 11.5732 297.546 11.1904 297.814C10.8076 298.083 10.6162 298.464 10.6162 298.956C10.6162 299.384 10.7461 299.701 11.0059 299.906C11.2656 300.111 11.6097 300.214 12.0381 300.214C12.7035 300.214 13.248 300.029 13.6719 299.66C14.0957 299.291 14.3076 298.737 14.3076 297.999V297.309ZM20.1865 300.207C20.3734 300.207 20.5648 300.191 20.7607 300.159C20.9567 300.127 21.1162 300.089 21.2393 300.043V300.925C21.1071 300.984 20.9225 301.034 20.6855 301.075C20.4531 301.116 20.2253 301.137 20.002 301.137C19.6055 301.137 19.2454 301.068 18.9219 300.932C18.5983 300.79 18.3385 300.553 18.1426 300.221C17.9512 299.888 17.8555 299.428 17.8555 298.84V294.396H16.7891V293.843L17.8623 293.398L18.3135 291.771H18.9971V293.508H21.1914V294.396H18.9971V298.806C18.9971 299.275 19.1042 299.626 19.3184 299.858C19.5371 300.091 19.8265 300.207 20.1865 300.207ZM25.5596 293.385C26.4528 293.385 27.1159 293.585 27.5488 293.986C27.9818 294.387 28.1982 295.028 28.1982 295.907V301H27.3711L27.1523 299.893H27.0977C26.888 300.166 26.6693 300.396 26.4414 300.583C26.2135 300.765 25.9492 300.904 25.6484 301C25.3522 301.091 24.9876 301.137 24.5547 301.137C24.099 301.137 23.6934 301.057 23.3379 300.897C22.987 300.738 22.709 300.496 22.5039 300.173C22.3034 299.849 22.2031 299.439 22.2031 298.942C22.2031 298.195 22.4993 297.621 23.0918 297.22C23.6842 296.819 24.5866 296.6 25.7988 296.563L27.0908 296.509V296.051C27.0908 295.404 26.9518 294.95 26.6738 294.69C26.3958 294.431 26.0039 294.301 25.498 294.301C25.1061 294.301 24.7324 294.358 24.377 294.472C24.0215 294.586 23.6842 294.72 23.3652 294.875L23.0166 294.014C23.3538 293.84 23.7412 293.692 24.1787 293.569C24.6162 293.446 25.0765 293.385 25.5596 293.385ZM27.0771 297.309L25.9355 297.356C25.0013 297.393 24.3428 297.546 23.96 297.814C23.5771 298.083 23.3857 298.464 23.3857 298.956C23.3857 299.384 23.5156 299.701 23.7754 299.906C24.0352 300.111 24.3792 300.214 24.8076 300.214C25.473 300.214 26.0176 300.029 26.4414 299.66C26.8652 299.291 27.0771 298.737 27.0771 297.999V297.309ZM35.3076 290.363V293.022C35.3076 293.328 35.2985 293.624 35.2803 293.911C35.2666 294.198 35.2552 294.422 35.2461 294.581H35.3076C35.5127 294.244 35.8089 293.959 36.1963 293.727C36.5837 293.494 37.0781 293.378 37.6797 293.378C38.6185 293.378 39.3659 293.704 39.9219 294.355C40.4824 295.003 40.7627 295.966 40.7627 297.247C40.7627 298.09 40.6351 298.801 40.3799 299.38C40.1247 299.959 39.7646 300.396 39.2998 300.692C38.835 300.989 38.2858 301.137 37.6523 301.137C37.0599 301.137 36.5723 301.027 36.1895 300.809C35.8112 300.585 35.5195 300.314 35.3145 299.995H35.2256L34.9932 301H34.1729V290.363H35.3076ZM37.4951 294.328C36.9528 294.328 36.5221 294.435 36.2031 294.649C35.8841 294.859 35.654 295.178 35.5127 295.606C35.376 296.03 35.3076 296.568 35.3076 297.22V297.281C35.3076 298.225 35.4648 298.947 35.7793 299.448C36.0938 299.945 36.6657 300.193 37.4951 300.193C38.1924 300.193 38.7142 299.938 39.0605 299.428C39.4115 298.917 39.5869 298.188 39.5869 297.24C39.5869 296.274 39.4137 295.547 39.0674 295.06C38.7256 294.572 38.2015 294.328 37.4951 294.328ZM46.1494 293.371C46.2998 293.371 46.457 293.38 46.6211 293.398C46.7852 293.412 46.931 293.433 47.0586 293.46L46.915 294.513C46.792 294.481 46.6553 294.456 46.5049 294.438C46.3545 294.419 46.2132 294.41 46.0811 294.41C45.7803 294.41 45.4954 294.472 45.2266 294.595C44.9622 294.713 44.7298 294.886 44.5293 295.114C44.3288 295.338 44.1715 295.609 44.0576 295.928C43.9437 296.242 43.8867 296.593 43.8867 296.98V301H42.7451V293.508H43.6885L43.8115 294.889H43.8594C44.0143 294.611 44.2012 294.358 44.4199 294.13C44.6387 293.897 44.8916 293.713 45.1787 293.576C45.4704 293.439 45.7939 293.371 46.1494 293.371ZM54.9336 297.24C54.9336 297.855 54.8538 298.405 54.6943 298.888C54.5348 299.371 54.3047 299.779 54.0039 300.111C53.7031 300.444 53.3385 300.699 52.9102 300.877C52.4863 301.05 52.0055 301.137 51.4678 301.137C50.9665 301.137 50.5062 301.05 50.0869 300.877C49.6722 300.699 49.3122 300.444 49.0068 300.111C48.7061 299.779 48.4714 299.371 48.3027 298.888C48.1387 298.405 48.0566 297.855 48.0566 297.24C48.0566 296.42 48.1956 295.723 48.4736 295.148C48.7516 294.57 49.1481 294.13 49.6631 293.829C50.1826 293.524 50.8001 293.371 51.5156 293.371C52.1992 293.371 52.7962 293.524 53.3066 293.829C53.8216 294.134 54.2204 294.576 54.5029 295.155C54.79 295.729 54.9336 296.424 54.9336 297.24ZM49.2324 297.24C49.2324 297.842 49.3122 298.364 49.4717 298.806C49.6312 299.248 49.8773 299.59 50.21 299.831C50.5426 300.073 50.971 300.193 51.4951 300.193C52.0146 300.193 52.4408 300.073 52.7734 299.831C53.1107 299.59 53.359 299.248 53.5186 298.806C53.6781 298.364 53.7578 297.842 53.7578 297.24C53.7578 296.643 53.6781 296.128 53.5186 295.695C53.359 295.258 53.113 294.921 52.7803 294.684C52.4476 294.447 52.0169 294.328 51.4883 294.328C50.709 294.328 50.137 294.586 49.7725 295.101C49.4124 295.616 49.2324 296.329 49.2324 297.24ZM58.0234 290.363V295.887C58.0234 296.069 58.0166 296.292 58.0029 296.557C57.9893 296.816 57.9779 297.047 57.9688 297.247H58.0166C58.1123 297.129 58.2513 296.953 58.4336 296.721C58.6204 296.488 58.7777 296.301 58.9053 296.16L61.3936 293.508H62.7266L59.7119 296.707L62.9453 301H61.5781L58.9326 297.452L58.0234 298.286V301H56.8955V290.363H58.0234ZM67.1357 293.371C67.7738 293.371 68.3206 293.512 68.7764 293.795C69.2321 294.077 69.5807 294.474 69.8223 294.984C70.0638 295.49 70.1846 296.083 70.1846 296.762V297.466H65.0098C65.0234 298.345 65.2422 299.015 65.666 299.476C66.0898 299.936 66.6868 300.166 67.457 300.166C67.931 300.166 68.3503 300.123 68.7148 300.036C69.0794 299.95 69.4577 299.822 69.8496 299.653V300.651C69.4714 300.82 69.0954 300.943 68.7217 301.021C68.3525 301.098 67.915 301.137 67.4092 301.137C66.6891 301.137 66.0602 300.991 65.5225 300.699C64.9893 300.403 64.5745 299.97 64.2783 299.4C63.9821 298.831 63.834 298.133 63.834 297.309C63.834 296.502 63.9684 295.805 64.2373 295.217C64.5107 294.624 64.8936 294.169 65.3857 293.85C65.8825 293.531 66.4658 293.371 67.1357 293.371ZM67.1221 294.301C66.516 294.301 66.0329 294.499 65.6729 294.896C65.3128 295.292 65.0986 295.846 65.0303 296.557H68.9951C68.9906 296.11 68.9199 295.718 68.7832 295.381C68.651 295.039 68.4482 294.775 68.1748 294.588C67.9014 294.396 67.5505 294.301 67.1221 294.301ZM75.5166 293.371C75.667 293.371 75.8242 293.38 75.9883 293.398C76.1523 293.412 76.2982 293.433 76.4258 293.46L76.2822 294.513C76.1592 294.481 76.0225 294.456 75.8721 294.438C75.7217 294.419 75.5804 294.41 75.4482 294.41C75.1475 294.41 74.8626 294.472 74.5938 294.595C74.3294 294.713 74.097 294.886 73.8965 295.114C73.696 295.338 73.5387 295.609 73.4248 295.928C73.3109 296.242 73.2539 296.593 73.2539 296.98V301H72.1123V293.508H73.0557L73.1787 294.889H73.2266C73.3815 294.611 73.5684 294.358 73.7871 294.13C74.0059 293.897 74.2588 293.713 74.5459 293.576C74.8376 293.439 75.1611 293.371 75.5166 293.371ZM82.6875 298.949C82.6875 299.428 82.5667 299.831 82.3252 300.159C82.0882 300.483 81.7464 300.727 81.2998 300.891C80.8577 301.055 80.3291 301.137 79.7139 301.137C79.1898 301.137 78.7363 301.096 78.3535 301.014C77.9707 300.932 77.6357 300.815 77.3486 300.665V299.619C77.654 299.77 78.0186 299.906 78.4424 300.029C78.8662 300.152 79.2992 300.214 79.7412 300.214C80.3883 300.214 80.8577 300.109 81.1494 299.899C81.4411 299.69 81.5869 299.405 81.5869 299.045C81.5869 298.84 81.5277 298.66 81.4092 298.505C81.2952 298.345 81.1016 298.193 80.8281 298.047C80.5547 297.896 80.1764 297.732 79.6934 297.555C79.2148 297.372 78.8001 297.192 78.4492 297.015C78.1029 296.832 77.834 296.611 77.6426 296.352C77.4557 296.092 77.3623 295.755 77.3623 295.34C77.3623 294.706 77.6175 294.221 78.1279 293.884C78.6429 293.542 79.3174 293.371 80.1514 293.371C80.6025 293.371 81.0241 293.417 81.416 293.508C81.8125 293.594 82.1816 293.713 82.5234 293.863L82.1406 294.772C81.8307 294.64 81.5003 294.529 81.1494 294.438C80.7985 294.346 80.4408 294.301 80.0762 294.301C79.5521 294.301 79.1488 294.387 78.8662 294.561C78.5882 294.734 78.4492 294.971 78.4492 295.271C78.4492 295.504 78.513 295.695 78.6406 295.846C78.7728 295.996 78.9824 296.137 79.2695 296.27C79.5566 296.402 79.9349 296.557 80.4043 296.734C80.8737 296.908 81.2793 297.088 81.6211 297.274C81.9629 297.457 82.2249 297.68 82.4072 297.944C82.5941 298.204 82.6875 298.539 82.6875 298.949Z" fill="#141416"/>
<path d="M7.93652 295.907C7.93652 297.033 7.73145 297.974 7.32129 298.73C6.91113 299.482 6.31641 300.05 5.53711 300.433C4.76237 300.811 3.82129 301 2.71387 301H0V291.006H3.01465C4.03092 291.006 4.90592 291.193 5.63965 291.566C6.37337 291.936 6.93848 292.485 7.33496 293.214C7.736 293.938 7.93652 294.836 7.93652 295.907ZM6.71289 295.948C6.71289 295.05 6.5625 294.31 6.26172 293.727C5.96549 293.143 5.52799 292.71 4.94922 292.428C4.375 292.141 3.6709 291.997 2.83691 291.997H1.16211V300.002H2.57715C3.95345 300.002 4.98568 299.662 5.67383 298.983C6.36654 298.304 6.71289 297.293 6.71289 295.948ZM12.79 293.385C13.6833 293.385 14.3464 293.585 14.7793 293.986C15.2122 294.387 15.4287 295.028 15.4287 295.907V301H14.6016L14.3828 299.893H14.3281C14.1185 300.166 13.8997 300.396 13.6719 300.583C13.444 300.765 13.1797 300.904 12.8789 301C12.5827 301.091 12.2181 301.137 11.7852 301.137C11.3294 301.137 10.9238 301.057 10.5684 300.897C10.2174 300.738 9.93945 300.496 9.73438 300.173C9.53385 299.849 9.43359 299.439 9.43359 298.942C9.43359 298.195 9.72982 297.621 10.3223 297.22C10.9147 296.819 11.8171 296.6 13.0293 296.563L14.3213 296.509V296.051C14.3213 295.404 14.1823 294.95 13.9043 294.69C13.6263 294.431 13.2344 294.301 12.7285 294.301C12.3366 294.301 11.9629 294.358 11.6074 294.472C11.252 294.586 10.9147 294.72 10.5957 294.875L10.2471 294.014C10.5843 293.84 10.9717 293.692 11.4092 293.569C11.8467 293.446 12.307 293.385 12.79 293.385ZM14.3076 297.309L13.166 297.356C12.2318 297.393 11.5732 297.546 11.1904 297.814C10.8076 298.083 10.6162 298.464 10.6162 298.956C10.6162 299.384 10.7461 299.701 11.0059 299.906C11.2656 300.111 11.6097 300.214 12.0381 300.214C12.7035 300.214 13.248 300.029 13.6719 299.66C14.0957 299.291 14.3076 298.737 14.3076 297.999V297.309ZM20.1865 300.207C20.3734 300.207 20.5648 300.191 20.7607 300.159C20.9567 300.127 21.1162 300.089 21.2393 300.043V300.925C21.1071 300.984 20.9225 301.034 20.6855 301.075C20.4531 301.116 20.2253 301.137 20.002 301.137C19.6055 301.137 19.2454 301.068 18.9219 300.932C18.5983 300.79 18.3385 300.553 18.1426 300.221C17.9512 299.888 17.8555 299.428 17.8555 298.84V294.396H16.7891V293.843L17.8623 293.398L18.3135 291.771H18.9971V293.508H21.1914V294.396H18.9971V298.806C18.9971 299.275 19.1042 299.626 19.3184 299.858C19.5371 300.091 19.8265 300.207 20.1865 300.207ZM25.5596 293.385C26.4528 293.385 27.1159 293.585 27.5488 293.986C27.9818 294.387 28.1982 295.028 28.1982 295.907V301H27.3711L27.1523 299.893H27.0977C26.888 300.166 26.6693 300.396 26.4414 300.583C26.2135 300.765 25.9492 300.904 25.6484 301C25.3522 301.091 24.9876 301.137 24.5547 301.137C24.099 301.137 23.6934 301.057 23.3379 300.897C22.987 300.738 22.709 300.496 22.5039 300.173C22.3034 299.849 22.2031 299.439 22.2031 298.942C22.2031 298.195 22.4993 297.621 23.0918 297.22C23.6842 296.819 24.5866 296.6 25.7988 296.563L27.0908 296.509V296.051C27.0908 295.404 26.9518 294.95 26.6738 294.69C26.3958 294.431 26.0039 294.301 25.498 294.301C25.1061 294.301 24.7324 294.358 24.377 294.472C24.0215 294.586 23.6842 294.72 23.3652 294.875L23.0166 294.014C23.3538 293.84 23.7412 293.692 24.1787 293.569C24.6162 293.446 25.0765 293.385 25.5596 293.385ZM27.0771 297.309L25.9355 297.356C25.0013 297.393 24.3428 297.546 23.96 297.814C23.5771 298.083 23.3857 298.464 23.3857 298.956C23.3857 299.384 23.5156 299.701 23.7754 299.906C24.0352 300.111 24.3792 300.214 24.8076 300.214C25.473 300.214 26.0176 300.029 26.4414 299.66C26.8652 299.291 27.0771 298.737 27.0771 297.999V297.309ZM35.3076 290.363V293.022C35.3076 293.328 35.2985 293.624 35.2803 293.911C35.2666 294.198 35.2552 294.422 35.2461 294.581H35.3076C35.5127 294.244 35.8089 293.959 36.1963 293.727C36.5837 293.494 37.0781 293.378 37.6797 293.378C38.6185 293.378 39.3659 293.704 39.9219 294.355C40.4824 295.003 40.7627 295.966 40.7627 297.247C40.7627 298.09 40.6351 298.801 40.3799 299.38C40.1247 299.959 39.7646 300.396 39.2998 300.692C38.835 300.989 38.2858 301.137 37.6523 301.137C37.0599 301.137 36.5723 301.027 36.1895 300.809C35.8112 300.585 35.5195 300.314 35.3145 299.995H35.2256L34.9932 301H34.1729V290.363H35.3076ZM37.4951 294.328C36.9528 294.328 36.5221 294.435 36.2031 294.649C35.8841 294.859 35.654 295.178 35.5127 295.606C35.376 296.03 35.3076 296.568 35.3076 297.22V297.281C35.3076 298.225 35.4648 298.947 35.7793 299.448C36.0938 299.945 36.6657 300.193 37.4951 300.193C38.1924 300.193 38.7142 299.938 39.0605 299.428C39.4115 298.917 39.5869 298.188 39.5869 297.24C39.5869 296.274 39.4137 295.547 39.0674 295.06C38.7256 294.572 38.2015 294.328 37.4951 294.328ZM46.1494 293.371C46.2998 293.371 46.457 293.38 46.6211 293.398C46.7852 293.412 46.931 293.433 47.0586 293.46L46.915 294.513C46.792 294.481 46.6553 294.456 46.5049 294.438C46.3545 294.419 46.2132 294.41 46.0811 294.41C45.7803 294.41 45.4954 294.472 45.2266 294.595C44.9622 294.713 44.7298 294.886 44.5293 295.114C44.3288 295.338 44.1715 295.609 44.0576 295.928C43.9437 296.242 43.8867 296.593 43.8867 296.98V301H42.7451V293.508H43.6885L43.8115 294.889H43.8594C44.0143 294.611 44.2012 294.358 44.4199 294.13C44.6387 293.897 44.8916 293.713 45.1787 293.576C45.4704 293.439 45.7939 293.371 46.1494 293.371ZM54.9336 297.24C54.9336 297.855 54.8538 298.405 54.6943 298.888C54.5348 299.371 54.3047 299.779 54.0039 300.111C53.7031 300.444 53.3385 300.699 52.9102 300.877C52.4863 301.05 52.0055 301.137 51.4678 301.137C50.9665 301.137 50.5062 301.05 50.0869 300.877C49.6722 300.699 49.3122 300.444 49.0068 300.111C48.7061 299.779 48.4714 299.371 48.3027 298.888C48.1387 298.405 48.0566 297.855 48.0566 297.24C48.0566 296.42 48.1956 295.723 48.4736 295.148C48.7516 294.57 49.1481 294.13 49.6631 293.829C50.1826 293.524 50.8001 293.371 51.5156 293.371C52.1992 293.371 52.7962 293.524 53.3066 293.829C53.8216 294.134 54.2204 294.576 54.5029 295.155C54.79 295.729 54.9336 296.424 54.9336 297.24ZM49.2324 297.24C49.2324 297.842 49.3122 298.364 49.4717 298.806C49.6312 299.248 49.8773 299.59 50.21 299.831C50.5426 300.073 50.971 300.193 51.4951 300.193C52.0146 300.193 52.4408 300.073 52.7734 299.831C53.1107 299.59 53.359 299.248 53.5186 298.806C53.6781 298.364 53.7578 297.842 53.7578 297.24C53.7578 296.643 53.6781 296.128 53.5186 295.695C53.359 295.258 53.113 294.921 52.7803 294.684C52.4476 294.447 52.0169 294.328 51.4883 294.328C50.709 294.328 50.137 294.586 49.7725 295.101C49.4124 295.616 49.2324 296.329 49.2324 297.24ZM58.0234 290.363V295.887C58.0234 296.069 58.0166 296.292 58.0029 296.557C57.9893 296.816 57.9779 297.047 57.9688 297.247H58.0166C58.1123 297.129 58.2513 296.953 58.4336 296.721C58.6204 296.488 58.7777 296.301 58.9053 296.16L61.3936 293.508H62.7266L59.7119 296.707L62.9453 301H61.5781L58.9326 297.452L58.0234 298.286V301H56.8955V290.363H58.0234ZM67.1357 293.371C67.7738 293.371 68.3206 293.512 68.7764 293.795C69.2321 294.077 69.5807 294.474 69.8223 294.984C70.0638 295.49 70.1846 296.083 70.1846 296.762V297.466H65.0098C65.0234 298.345 65.2422 299.015 65.666 299.476C66.0898 299.936 66.6868 300.166 67.457 300.166C67.931 300.166 68.3503 300.123 68.7148 300.036C69.0794 299.95 69.4577 299.822 69.8496 299.653V300.651C69.4714 300.82 69.0954 300.943 68.7217 301.021C68.3525 301.098 67.915 301.137 67.4092 301.137C66.6891 301.137 66.0602 300.991 65.5225 300.699C64.9893 300.403 64.5745 299.97 64.2783 299.4C63.9821 298.831 63.834 298.133 63.834 297.309C63.834 296.502 63.9684 295.805 64.2373 295.217C64.5107 294.624 64.8936 294.169 65.3857 293.85C65.8825 293.531 66.4658 293.371 67.1357 293.371ZM67.1221 294.301C66.516 294.301 66.0329 294.499 65.6729 294.896C65.3128 295.292 65.0986 295.846 65.0303 296.557H68.9951C68.9906 296.11 68.9199 295.718 68.7832 295.381C68.651 295.039 68.4482 294.775 68.1748 294.588C67.9014 294.396 67.5505 294.301 67.1221 294.301ZM75.5166 293.371C75.667 293.371 75.8242 293.38 75.9883 293.398C76.1523 293.412 76.2982 293.433 76.4258 293.46L76.2822 294.513C76.1592 294.481 76.0225 294.456 75.8721 294.438C75.7217 294.419 75.5804 294.41 75.4482 294.41C75.1475 294.41 74.8626 294.472 74.5938 294.595C74.3294 294.713 74.097 294.886 73.8965 295.114C73.696 295.338 73.5387 295.609 73.4248 295.928C73.3109 296.242 73.2539 296.593 73.2539 296.98V301H72.1123V293.508H73.0557L73.1787 294.889H73.2266C73.3815 294.611 73.5684 294.358 73.7871 294.13C74.0059 293.897 74.2588 293.713 74.5459 293.576C74.8376 293.439 75.1611 293.371 75.5166 293.371ZM82.6875 298.949C82.6875 299.428 82.5667 299.831 82.3252 300.159C82.0882 300.483 81.7464 300.727 81.2998 300.891C80.8577 301.055 80.3291 301.137 79.7139 301.137C79.1898 301.137 78.7363 301.096 78.3535 301.014C77.9707 300.932 77.6357 300.815 77.3486 300.665V299.619C77.654 299.77 78.0186 299.906 78.4424 300.029C78.8662 300.152 79.2992 300.214 79.7412 300.214C80.3883 300.214 80.8577 300.109 81.1494 299.899C81.4411 299.69 81.5869 299.405 81.5869 299.045C81.5869 298.84 81.5277 298.66 81.4092 298.505C81.2952 298.345 81.1016 298.193 80.8281 298.047C80.5547 297.896 80.1764 297.732 79.6934 297.555C79.2148 297.372 78.8001 297.192 78.4492 297.015C78.1029 296.832 77.834 296.611 77.6426 296.352C77.4557 296.092 77.3623 295.755 77.3623 295.34C77.3623 294.706 77.6175 294.221 78.1279 293.884C78.6429 293.542 79.3174 293.371 80.1514 293.371C80.6025 293.371 81.0241 293.417 81.416 293.508C81.8125 293.594 82.1816 293.713 82.5234 293.863L82.1406 294.772C81.8307 294.64 81.5003 294.529 81.1494 294.438C80.7985 294.346 80.4408 294.301 80.0762 294.301C79.5521 294.301 79.1488 294.387 78.8662 294.561C78.5882 294.734 78.4492 294.971 78.4492 295.271C78.4492 295.504 78.513 295.695 78.6406 295.846C78.7728 295.996 78.9824 296.137 79.2695 296.27C79.5566 296.402 79.9349 296.557 80.4043 296.734C80.8737 296.908 81.2793 297.088 81.6211 297.274C81.9629 297.457 82.2249 297.68 82.4072 297.944C82.5941 298.204 82.6875 298.539 82.6875 298.949Z" fill="black" fill-opacity="0.2"/>
<path d="M291 284.006H293.83C295.079 284.006 296.018 284.193 296.646 284.566C297.275 284.94 297.59 285.576 297.59 286.474C297.59 286.861 297.515 287.21 297.364 287.52C297.218 287.825 297.004 288.078 296.722 288.278C296.439 288.479 296.09 288.618 295.676 288.695V288.764C296.113 288.832 296.501 288.957 296.838 289.14C297.175 289.322 297.439 289.577 297.631 289.905C297.822 290.233 297.918 290.65 297.918 291.156C297.918 291.771 297.774 292.291 297.487 292.715C297.205 293.139 296.804 293.46 296.284 293.679C295.765 293.893 295.149 294 294.438 294H291V284.006ZM292.162 288.292H294.076C294.947 288.292 295.548 288.148 295.881 287.861C296.218 287.574 296.387 287.155 296.387 286.604C296.387 286.034 296.186 285.624 295.785 285.373C295.389 285.122 294.755 284.997 293.885 284.997H292.162V288.292ZM292.162 289.27V293.009H294.24C295.129 293.009 295.758 292.836 296.127 292.489C296.496 292.138 296.681 291.667 296.681 291.074C296.681 290.696 296.596 290.372 296.428 290.104C296.264 289.835 295.995 289.63 295.621 289.488C295.252 289.342 294.757 289.27 294.138 289.27H292.162ZM301.021 294H299.88V283.363H301.021V294ZM306.224 286.385C307.117 286.385 307.78 286.585 308.213 286.986C308.646 287.387 308.862 288.028 308.862 288.907V294H308.035L307.816 292.893H307.762C307.552 293.166 307.333 293.396 307.105 293.583C306.878 293.765 306.613 293.904 306.312 294C306.016 294.091 305.652 294.137 305.219 294.137C304.763 294.137 304.357 294.057 304.002 293.897C303.651 293.738 303.373 293.496 303.168 293.173C302.967 292.849 302.867 292.439 302.867 291.942C302.867 291.195 303.163 290.621 303.756 290.22C304.348 289.819 305.251 289.6 306.463 289.563L307.755 289.509V289.051C307.755 288.404 307.616 287.95 307.338 287.69C307.06 287.431 306.668 287.301 306.162 287.301C305.77 287.301 305.396 287.358 305.041 287.472C304.686 287.586 304.348 287.72 304.029 287.875L303.681 287.014C304.018 286.84 304.405 286.692 304.843 286.569C305.28 286.446 305.741 286.385 306.224 286.385ZM307.741 290.309L306.6 290.356C305.665 290.393 305.007 290.546 304.624 290.814C304.241 291.083 304.05 291.464 304.05 291.956C304.05 292.384 304.18 292.701 304.439 292.906C304.699 293.111 305.043 293.214 305.472 293.214C306.137 293.214 306.682 293.029 307.105 292.66C307.529 292.291 307.741 291.737 307.741 290.999V290.309ZM314.201 294.137C313.527 294.137 312.932 293.998 312.417 293.72C311.902 293.442 311.501 293.018 311.214 292.448C310.927 291.879 310.783 291.161 310.783 290.295C310.783 289.388 310.934 288.647 311.234 288.073C311.54 287.494 311.959 287.066 312.492 286.788C313.025 286.51 313.632 286.371 314.311 286.371C314.684 286.371 315.044 286.41 315.391 286.487C315.742 286.56 316.029 286.654 316.252 286.768L315.91 287.718C315.682 287.627 315.418 287.545 315.117 287.472C314.821 287.399 314.543 287.362 314.283 287.362C313.764 287.362 313.331 287.474 312.984 287.697C312.643 287.921 312.385 288.249 312.212 288.682C312.043 289.115 311.959 289.648 311.959 290.281C311.959 290.887 312.041 291.405 312.205 291.833C312.374 292.261 312.622 292.59 312.95 292.817C313.283 293.041 313.698 293.152 314.194 293.152C314.591 293.152 314.949 293.111 315.268 293.029C315.587 292.943 315.876 292.842 316.136 292.729V293.74C315.885 293.868 315.605 293.966 315.295 294.034C314.99 294.103 314.625 294.137 314.201 294.137ZM319.041 283.363V288.887C319.041 289.069 319.034 289.292 319.021 289.557C319.007 289.816 318.995 290.047 318.986 290.247H319.034C319.13 290.129 319.269 289.953 319.451 289.721C319.638 289.488 319.795 289.301 319.923 289.16L322.411 286.508H323.744L320.729 289.707L323.963 294H322.596L319.95 290.452L319.041 291.286V294H317.913V283.363H319.041ZM336.65 294H335.488V289.29H330.238V294H329.076V284.006H330.238V288.265H335.488V284.006H336.65V294ZM342.03 286.385C342.924 286.385 343.587 286.585 344.02 286.986C344.452 287.387 344.669 288.028 344.669 288.907V294H343.842L343.623 292.893H343.568C343.359 293.166 343.14 293.396 342.912 293.583C342.684 293.765 342.42 293.904 342.119 294C341.823 294.091 341.458 294.137 341.025 294.137C340.57 294.137 340.164 294.057 339.809 293.897C339.458 293.738 339.18 293.496 338.975 293.173C338.774 292.849 338.674 292.439 338.674 291.942C338.674 291.195 338.97 290.621 339.562 290.22C340.155 289.819 341.057 289.6 342.27 289.563L343.562 289.509V289.051C343.562 288.404 343.423 287.95 343.145 287.69C342.867 287.431 342.475 287.301 341.969 287.301C341.577 287.301 341.203 287.358 340.848 287.472C340.492 287.586 340.155 287.72 340.029 287.875L339.487 287.014C339.825 286.84 340.212 286.692 340.649 286.569C341.087 286.446 341.547 286.385 342.03 286.385ZM343.548 290.309L342.406 290.356C341.472 290.393 340.813 290.546 340.431 290.814C340.048 291.083 339.856 291.464 339.856 291.956C339.856 292.384 339.986 292.701 340.246 292.906C340.506 293.111 340.85 293.214 341.278 293.214C341.944 293.214 342.488 293.029 342.912 292.66C343.336 292.291 343.548 291.737 343.548 290.999V290.309ZM350.008 294.137C349.333 294.137 348.739 293.998 348.224 293.72C347.709 293.442 347.308 293.018 347.021 292.448C346.733 291.879 346.59 291.161 346.59 290.295C346.59 289.388 346.74 288.647 347.041 288.073C347.346 287.494 347.766 287.066 348.299 286.788C348.832 286.51 349.438 286.371 350.117 286.371C350.491 286.371 350.851 286.41 351.197 286.487C351.548 286.56 351.835 286.654 352.059 286.768L351.717 287.718C351.489 287.627 351.225 287.545 350.924 287.472C350.628 287.399 350.35 287.362 350.09 287.362C349.57 287.362 349.137 287.474 348.791 287.697C348.449 287.921 348.192 288.249 348.019 288.682C347.85 289.115 347.766 289.648 347.766 290.281C347.766 290.887 347.848 291.405 348.012 291.833C348.18 292.261 348.429 292.59 348.757 292.817C349.09 293.041 349.504 293.152 350.001 293.152C350.397 293.152 350.755 293.111 351.074 293.029C351.393 292.943 351.683 292.842 351.942 292.729V293.74C351.692 293.868 351.411 293.966 351.102 294.034C350.796 294.103 350.432 294.137 350.008 294.137ZM354.848 283.363V288.887C354.848 289.069 354.841 289.292 354.827 289.557C354.813 289.816 354.802 290.047 354.793 290.247H354.841C354.937 290.129 355.076 289.953 355.258 289.721C355.445 289.488 355.602 289.301 355.729 289.16L358.218 286.508H359.551L356.536 289.707L359.77 294H358.402L355.757 290.452L354.848 291.286V294H353.72V283.363H354.848ZM363.96 286.371C364.598 286.371 365.145 286.512 365.601 286.795C366.056 287.077 366.405 287.474 366.646 287.984C366.888 288.49 367.009 289.083 367.009 289.762V290.466H361.834C361.848 291.345 362.066 292.015 362.49 292.476C362.914 292.936 363.511 293.166 364.281 293.166C364.755 293.166 365.174 293.123 365.539 293.036C365.904 292.95 366.282 292.822 366.674 292.653V293.651C366.296 293.82 365.92 293.943 365.546 294.021C365.177 294.098 364.739 294.137 364.233 294.137C363.513 294.137 362.884 293.991 362.347 293.699C361.813 293.403 361.399 292.97 361.103 292.4C360.806 291.831 360.658 291.133 360.658 290.309C360.658 289.502 360.793 288.805 361.062 288.217C361.335 287.624 361.718 287.169 362.21 286.85C362.707 286.531 363.29 286.371 363.96 286.371ZM363.946 287.301C363.34 287.301 362.857 287.499 362.497 287.896C362.137 288.292 361.923 288.846 361.854 289.557H365.819C365.815 289.11 365.744 288.718 365.607 288.381C365.475 288.039 365.272 287.775 364.999 287.588C364.726 287.396 364.375 287.301 363.946 287.301ZM372.341 286.371C372.491 286.371 372.648 286.38 372.812 286.398C372.977 286.412 373.122 286.433 373.25 286.46L373.106 287.513C372.983 287.481 372.847 287.456 372.696 287.438C372.546 287.419 372.405 287.41 372.272 287.41C371.972 287.41 371.687 287.472 371.418 287.595C371.154 287.713 370.921 287.886 370.721 288.114C370.52 288.338 370.363 288.609 370.249 288.928C370.135 289.242 370.078 289.593 370.078 289.98V294H368.937V286.508H369.88L370.003 287.889H370.051C370.206 287.611 370.393 287.358 370.611 287.13C370.83 286.897 371.083 286.713 371.37 286.576C371.662 286.439 371.985 286.371 372.341 286.371ZM379.512 291.949C379.512 292.428 379.391 292.831 379.149 293.159C378.912 293.483 378.571 293.727 378.124 293.891C377.682 294.055 377.153 294.137 376.538 294.137C376.014 294.137 375.561 294.096 375.178 294.014C374.795 293.932 374.46 293.815 374.173 293.665V292.619C374.478 292.77 374.843 292.906 375.267 293.029C375.69 293.152 376.123 293.214 376.565 293.214C377.213 293.214 377.682 293.109 377.974 292.899C378.265 292.69 378.411 292.405 378.411 292.045C378.411 291.84 378.352 291.66 378.233 291.505C378.119 291.345 377.926 291.193 377.652 291.047C377.379 290.896 377.001 290.732 376.518 290.555C376.039 290.372 375.624 290.192 375.273 290.015C374.927 289.832 374.658 289.611 374.467 289.352C374.28 289.092 374.187 288.755 374.187 288.34C374.187 287.706 374.442 287.221 374.952 286.884C375.467 286.542 376.142 286.371 376.976 286.371C377.427 286.371 377.848 286.417 378.24 286.508C378.637 286.594 379.006 286.713 379.348 286.863L378.965 287.772C378.655 287.64 378.325 287.529 377.974 287.438C377.623 287.346 377.265 287.301 376.9 287.301C376.376 287.301 375.973 287.387 375.69 287.561C375.412 287.734 375.273 287.971 375.273 288.271C375.273 288.504 375.337 288.695 375.465 288.846C375.597 288.996 375.807 289.137 376.094 289.27C376.381 289.402 376.759 289.557 377.229 289.734C377.698 289.908 378.104 290.088 378.445 290.274C378.787 290.457 379.049 290.68 379.231 290.944C379.418 291.204 379.512 291.539 379.512 291.949Z" fill="#141416"/>
<path d="M320.64 37.3408C320.64 37.9333 320.492 38.4391 320.195 38.8584C319.904 39.2731 319.493 39.5898 318.965 39.8086C318.436 40.0273 317.814 40.1367 317.099 40.1367C316.72 40.1367 316.363 40.1185 316.025 40.082C315.688 40.0456 315.378 39.9932 315.096 39.9248C314.813 39.8564 314.565 39.7721 314.351 39.6719V38.5576C314.692 38.6989 315.109 38.8311 315.602 38.9541C316.094 39.0726 316.609 39.1318 317.146 39.1318C317.648 39.1318 318.072 39.0658 318.418 38.9336C318.764 38.7969 319.026 38.6032 319.204 38.3525C319.386 38.0973 319.478 37.792 319.478 37.4365C319.478 37.0947 319.402 36.8099 319.252 36.582C319.102 36.3496 318.851 36.14 318.5 35.9531C318.154 35.7617 317.68 35.5589 317.078 35.3447C316.654 35.1943 316.281 35.0303 315.957 34.8525C315.633 34.6702 315.362 34.4652 315.144 34.2373C314.925 34.0094 314.758 33.7451 314.645 33.4443C314.535 33.1436 314.48 32.7995 314.48 32.4121C314.48 31.8789 314.615 31.4232 314.884 31.0449C315.157 30.6621 315.533 30.3704 316.012 30.1699C316.495 29.9648 317.049 29.8623 317.673 29.8623C318.206 29.8623 318.698 29.9124 319.149 30.0127C319.605 30.113 320.022 30.2474 320.4 30.416L320.038 31.4141C319.678 31.2637 319.295 31.1383 318.89 31.0381C318.489 30.9378 318.074 30.8877 317.646 30.8877C317.217 30.8877 316.855 30.9515 316.559 31.0791C316.267 31.2021 316.044 31.3776 315.889 31.6055C315.734 31.8333 315.656 32.1045 315.656 32.4189C315.656 32.7699 315.729 33.0615 315.875 33.2939C316.025 33.5264 316.262 33.7337 316.586 33.916C316.914 34.0938 317.347 34.2806 317.885 34.4766C318.473 34.6908 318.972 34.9186 319.382 35.1602C319.792 35.3971 320.104 35.6888 320.318 36.0352C320.533 36.377 320.64 36.8122 320.64 37.3408ZM325.514 40.1367C324.839 40.1367 324.244 39.9977 323.729 39.7197C323.215 39.4417 322.813 39.0179 322.526 38.4482C322.239 37.8786 322.096 37.1608 322.096 36.2949C322.096 35.388 322.246 34.6475 322.547 34.0732C322.852 33.4945 323.271 33.0661 323.805 32.7881C324.338 32.5101 324.944 32.3711 325.623 32.3711C325.997 32.3711 326.357 32.4098 326.703 32.4873C327.054 32.5602 327.341 32.6536 327.564 32.7676L327.223 33.7178C326.995 33.6266 326.73 33.5446 326.43 33.4717C326.133 33.3988 325.855 33.3623 325.596 33.3623C325.076 33.3623 324.643 33.474 324.297 33.6973C323.955 33.9206 323.698 34.2487 323.524 34.6816C323.356 35.1146 323.271 35.6478 323.271 36.2812C323.271 36.8874 323.354 37.4046 323.518 37.833C323.686 38.2614 323.935 38.5895 324.263 38.8174C324.595 39.0407 325.01 39.1523 325.507 39.1523C325.903 39.1523 326.261 39.1113 326.58 39.0293C326.899 38.9427 327.188 38.8424 327.448 38.7285V39.7402C327.198 39.8678 326.917 39.9658 326.607 40.0342C326.302 40.1025 325.938 40.1367 325.514 40.1367ZM332.028 32.3848C332.922 32.3848 333.585 32.5853 334.018 32.9863C334.451 33.3874 334.667 34.0277 334.667 34.9072V40H333.84L333.621 38.8926H333.566C333.357 39.166 333.138 39.3962 332.91 39.583C332.682 39.7653 332.418 39.9043 332.117 40C331.821 40.0911 331.456 40.1367 331.023 40.1367C330.568 40.1367 330.162 40.057 329.807 39.8975C329.456 39.738 329.178 39.4964 328.973 39.1729C328.772 38.8493 328.672 38.4391 328.672 37.9424C328.672 37.195 328.968 36.6208 329.561 36.2197C330.153 35.8187 331.055 35.5999 332.268 35.5635L333.56 35.5088V35.0508C333.56 34.4036 333.421 33.9502 333.143 33.6904C332.865 33.4307 332.473 33.3008 331.967 33.3008C331.575 33.3008 331.201 33.3577 330.846 33.4717C330.49 33.5856 330.153 33.7201 329.834 33.875L329.485 33.0137C329.823 32.8405 330.21 32.6924 330.647 32.5693C331.085 32.4463 331.545 32.3848 332.028 32.3848ZM333.546 36.3086L332.404 36.3564C331.47 36.3929 330.812 36.5456 330.429 36.8145C330.046 37.0833 329.854 37.4639 329.854 37.9561C329.854 38.3844 329.984 38.7012 330.244 38.9062C330.504 39.1113 330.848 39.2139 331.276 39.2139C331.942 39.2139 332.486 39.0293 332.91 38.6602C333.334 38.291 333.546 37.7373 333.546 36.999V36.3086ZM345.14 32.3711C345.965 32.3711 346.587 32.5876 347.006 33.0205C347.425 33.4489 347.635 34.1393 347.635 35.0918V40H346.514V35.1465C346.514 34.5404 346.382 34.0869 346.117 33.7861C345.857 33.4808 345.47 33.3281 344.955 33.3281C344.23 33.3281 343.704 33.5378 343.376 33.957C343.048 34.3763 342.884 34.9938 342.884 35.8096V40H341.756V35.1465C341.756 34.7409 341.697 34.4036 341.578 34.1348C341.464 33.8659 341.291 33.6654 341.059 33.5332C340.831 33.3965 340.541 33.3281 340.19 33.3281C339.694 33.3281 339.295 33.4307 338.994 33.6357C338.693 33.8408 338.475 34.1462 338.338 34.5518C338.206 34.9528 338.14 35.4473 338.14 36.0352V40H337.005V32.5078H337.921L338.092 33.5674H338.153C338.304 33.3076 338.493 33.0889 338.721 32.9111C338.949 32.7334 339.204 32.599 339.486 32.5078C339.769 32.4167 340.07 32.3711 340.389 32.3711C340.958 32.3711 341.435 32.4782 341.817 32.6924C342.205 32.902 342.485 33.2233 342.658 33.6562H342.72C342.966 33.2233 343.303 32.902 343.731 32.6924C344.16 32.4782 344.629 32.3711 345.14 32.3711ZM354.812 37.9492C354.812 38.4277 354.692 38.8311 354.45 39.1592C354.213 39.4827 353.871 39.7266 353.425 39.8906C352.983 40.0547 352.454 40.1367 351.839 40.1367C351.315 40.1367 350.861 40.0957 350.479 40.0137C350.096 39.9316 349.761 39.8154 349.474 39.665V38.6191C349.779 38.7695 350.144 38.9062 350.567 39.0293C350.991 39.1523 351.424 39.2139 351.866 39.2139C352.513 39.2139 352.983 39.109 353.274 38.8994C353.566 38.6898 353.712 38.4049 353.712 38.0449C353.712 37.8398 353.653 37.6598 353.534 37.5049C353.42 37.3454 353.227 37.1927 352.953 37.0469C352.68 36.8965 352.301 36.7324 351.818 36.5547C351.34 36.3724 350.925 36.1924 350.574 36.0146C350.228 35.8324 349.959 35.6113 349.768 35.3516C349.581 35.0918 349.487 34.7546 349.487 34.3398C349.487 33.7064 349.743 33.221 350.253 32.8838C350.768 32.542 351.442 32.3711 352.276 32.3711C352.728 32.3711 353.149 32.4167 353.541 32.5078C353.938 32.5944 354.307 32.7129 354.648 32.8633L354.266 33.7725C353.956 33.6403 353.625 33.5286 353.274 33.4375C352.924 33.3464 352.566 33.3008 352.201 33.3008C351.677 33.3008 351.274 33.3874 350.991 33.5605C350.713 33.7337 350.574 33.9707 350.574 34.2715C350.574 34.5039 350.638 34.6953 350.766 34.8457C350.898 34.9961 351.107 35.1374 351.395 35.2695C351.682 35.4017 352.06 35.5566 352.529 35.7344C352.999 35.9076 353.404 36.0876 353.746 36.2744C354.088 36.4567 354.35 36.68 354.532 36.9443C354.719 37.2041 354.812 37.5391 354.812 37.9492Z" fill="#141416"/>
</svg>
