<svg width="64" height="64" viewBox="0 0 64 64" fill="none" xmlns="http://www.w3.org/2000/svg">
<mask id="mask0_565_2475" style="mask-type:alpha" maskUnits="userSpaceOnUse" x="0" y="0" width="64" height="64">
<rect width="64" height="64" fill="#D9D9D9"/>
</mask>
<g mask="url(#mask0_565_2475)">
<path d="M57.0666 38L37.9999 57.0666C37.4666 57.6 36.8666 58 36.1999 58.2666C35.5332 58.5333 34.8666 58.6666 34.1999 58.6666C33.5332 58.6666 32.8666 58.5333 32.1999 58.2666C31.5333 58 30.9333 57.6 30.3999 57.0666L6.86659 33.5333C6.3777 33.0444 5.99992 32.4778 5.73325 31.8333C5.46659 31.1889 5.33325 30.5111 5.33325 29.8V10.6666C5.33325 9.19998 5.85547 7.94442 6.89992 6.89998C7.94436 5.85554 9.19992 5.33331 10.6666 5.33331H29.7999C30.511 5.33331 31.1999 5.47776 31.8666 5.76665C32.5332 6.05554 33.111 6.44442 33.5999 6.93331L57.0666 30.4666C57.5999 31 57.9888 31.6 58.2332 32.2666C58.4777 32.9333 58.5999 33.6 58.5999 34.2666C58.5999 34.9333 58.4777 35.5889 58.2332 36.2333C57.9888 36.8778 57.5999 37.4666 57.0666 38ZM34.1999 53.3333L53.2666 34.2666L29.7333 10.6666H10.6666V29.7333L34.1999 53.3333ZM17.3333 21.3333C18.4444 21.3333 19.3888 20.9444 20.1666 20.1666C20.9444 19.3889 21.3333 18.4444 21.3333 17.3333C21.3333 16.2222 20.9444 15.2778 20.1666 14.5C19.3888 13.7222 18.4444 13.3333 17.3333 13.3333C16.2221 13.3333 15.2777 13.7222 14.4999 14.5C13.7221 15.2778 13.3333 16.2222 13.3333 17.3333C13.3333 18.4444 13.7221 19.3889 14.4999 20.1666C15.2777 20.9444 16.2221 21.3333 17.3333 21.3333Z" fill="#141416"/>
<path d="M57.0666 38L37.9999 57.0666C37.4666 57.6 36.8666 58 36.1999 58.2666C35.5332 58.5333 34.8666 58.6666 34.1999 58.6666C33.5332 58.6666 32.8666 58.5333 32.1999 58.2666C31.5333 58 30.9333 57.6 30.3999 57.0666L6.86659 33.5333C6.3777 33.0444 5.99992 32.4778 5.73325 31.8333C5.46659 31.1889 5.33325 30.5111 5.33325 29.8V10.6666C5.33325 9.19998 5.85547 7.94442 6.89992 6.89998C7.94436 5.85554 9.19992 5.33331 10.6666 5.33331H29.7999C30.511 5.33331 31.1999 5.47776 31.8666 5.76665C32.5332 6.05554 33.111 6.44442 33.5999 6.93331L57.0666 30.4666C57.5999 31 57.9888 31.6 58.2332 32.2666C58.4777 32.9333 58.5999 33.6 58.5999 34.2666C58.5999 34.9333 58.4777 35.5889 58.2332 36.2333C57.9888 36.8778 57.5999 37.4666 57.0666 38ZM34.1999 53.3333L53.2666 34.2666L29.7333 10.6666H10.6666V29.7333L34.1999 53.3333ZM17.3333 21.3333C18.4444 21.3333 19.3888 20.9444 20.1666 20.1666C20.9444 19.3889 21.3333 18.4444 21.3333 17.3333C21.3333 16.2222 20.9444 15.2778 20.1666 14.5C19.3888 13.7222 18.4444 13.3333 17.3333 13.3333C16.2221 13.3333 15.2777 13.7222 14.4999 14.5C13.7221 15.2778 13.3333 16.2222 13.3333 17.3333C13.3333 18.4444 13.7221 19.3889 14.4999 20.1666C15.2777 20.9444 16.2221 21.3333 17.3333 21.3333Z" fill="black" fill-opacity="0.2"/>
</g>
</svg>
