<svg width="126" height="126" viewBox="0 0 126 126" fill="none" xmlns="http://www.w3.org/2000/svg">
<path d="M27.0626 87.9999H36.4376V86.4374C36.4376 79.0415 39.0157 72.7655 44.172 67.6092C49.3282 62.453 55.6043 59.8749 63.0001 59.8749C70.396 59.8749 76.672 62.453 81.8282 67.6092C86.9845 72.7655 89.5626 79.0415 89.5626 86.4374V87.9999H98.9376V86.4374C98.9376 76.4374 95.448 67.9478 88.4689 60.9686C81.4897 53.9895 73.0001 50.4999 63.0001 50.4999C53.0001 50.4999 44.5105 53.9895 37.5314 60.9686C30.5522 67.9478 27.0626 76.4374 27.0626 86.4374V87.9999ZM32.3751 45.8124C36.646 45.1874 41.1512 43.5207 45.8907 40.8124C50.6303 38.104 54.4064 35.0311 57.2189 31.5936L50.0314 25.6561C47.948 28.1561 45.0574 30.4478 41.3595 32.5311C37.6616 34.6145 34.2501 35.9165 31.1251 36.4374L32.3751 45.8124ZM93.6251 45.8124L94.8751 36.4374C91.7501 35.9165 88.3387 34.6145 84.6407 32.5311C80.9428 30.4478 78.0522 28.1561 75.9689 25.6561L68.7814 31.5936C71.5939 35.0311 75.3699 38.104 80.1095 40.8124C84.8491 43.5207 89.3543 45.1874 93.6251 45.8124ZM63.0001 125.5C54.3543 125.5 46.2293 123.859 38.6251 120.578C31.021 117.297 24.4064 112.844 18.7814 107.219C13.1564 101.594 8.70325 94.979 5.422 87.3749C2.14075 79.7707 0.500122 71.6457 0.500122 62.9999C0.500122 54.354 2.14075 46.229 5.422 38.6249C8.70325 31.0207 13.1564 24.4061 18.7814 18.7811C24.4064 13.1561 31.021 8.703 38.6251 5.42175C46.2293 2.1405 54.3543 0.499878 63.0001 0.499878C71.646 0.499878 79.771 2.1405 87.3751 5.42175C94.9793 8.703 101.594 13.1561 107.219 18.7811C112.844 24.4061 117.297 31.0207 120.578 38.6249C123.859 46.229 125.5 54.354 125.5 62.9999C125.5 71.6457 123.859 79.7707 120.578 87.3749C117.297 94.979 112.844 101.594 107.219 107.219C101.594 112.844 94.9793 117.297 87.3751 120.578C79.771 123.859 71.646 125.5 63.0001 125.5ZM63.0001 113C76.9585 113 88.7814 108.156 98.4689 98.4686C108.156 88.7811 113 76.9582 113 62.9999C113 49.0415 108.156 37.2186 98.4689 27.5311C88.7814 17.8436 76.9585 12.9999 63.0001 12.9999C49.0418 12.9999 37.2189 17.8436 27.5314 27.5311C17.8439 37.2186 13.0001 49.0415 13.0001 62.9999C13.0001 76.9582 17.8439 88.7811 27.5314 98.4686C37.2189 108.156 49.0418 113 63.0001 113Z" fill="#F3F0F5"/>
</svg>
