<svg width="24" height="24" viewBox="0 0 24 24" fill="none" xmlns="http://www.w3.org/2000/svg">
<g style="mix-blend-mode:multiply">
<mask id="mask0_351_1687" style="mask-type:alpha" maskUnits="userSpaceOnUse" x="0" y="0" width="24" height="24">
<rect width="24" height="24" fill="#D9D9D9"/>
</mask>
<g mask="url(#mask0_351_1687)">
<path d="M6.88889 4C5.30136 4 4 5.30136 4 6.88889V17.1111C4 18.6986 5.30136 20 6.88889 20H17.1111C18.6986 20 20 18.6986 20 17.1111V6.88889C20 5.30136 18.6986 4 17.1111 4H6.88889ZM6.88889 5.33333H17.1111C17.9778 5.33333 18.6667 6.02219 18.6667 6.88889V17.1111C18.6667 17.9778 17.9778 18.6667 17.1111 18.6667H6.88889C6.02219 18.6667 5.33333 17.9778 5.33333 17.1111V6.88889C5.33333 6.02219 6.02219 5.33333 6.88889 5.33333ZM7.47917 7.55556L10.9175 12.4696L7.47656 16.4444H8.38455L11.3194 13.0451L13.6979 16.4444H16.559L12.9002 11.2153L16.0608 7.55556H15.1719L12.4991 10.6415L10.3403 7.55556H7.47917ZM8.86024 8.30903H9.99913L15.178 15.691H14.0391L8.86024 8.30903Z" fill="#141416"/>
<path d="M6.88889 4C5.30136 4 4 5.30136 4 6.88889V17.1111C4 18.6986 5.30136 20 6.88889 20H17.1111C18.6986 20 20 18.6986 20 17.1111V6.88889C20 5.30136 18.6986 4 17.1111 4H6.88889ZM6.88889 5.33333H17.1111C17.9778 5.33333 18.6667 6.02219 18.6667 6.88889V17.1111C18.6667 17.9778 17.9778 18.6667 17.1111 18.6667H6.88889C6.02219 18.6667 5.33333 17.9778 5.33333 17.1111V6.88889C5.33333 6.02219 6.02219 5.33333 6.88889 5.33333ZM7.47917 7.55556L10.9175 12.4696L7.47656 16.4444H8.38455L11.3194 13.0451L13.6979 16.4444H16.559L12.9002 11.2153L16.0608 7.55556H15.1719L12.4991 10.6415L10.3403 7.55556H7.47917ZM8.86024 8.30903H9.99913L15.178 15.691H14.0391L8.86024 8.30903Z" fill="black" fill-opacity="0.2"/>
</g>
</g>
</svg>
