<svg width="809" height="691" viewBox="0 0 809 691" fill="none" xmlns="http://www.w3.org/2000/svg">
  <path d="M575.418 1.5 
           C575.436 55.6338 576.465 97.1004 581.311 128.812 
           C586.201 160.821 595.01 183.121 610.801 198.512 
           C626.589 213.899 649.136 222.164 681.003 226.616 
           C712.569 231.026 753.515 231.72 806.513 231.732 
           
           M806.513 458.695 
           C753.504 458.708 712.552 459.403 680.983 463.812 
           C649.115 468.264 626.569 476.53 610.784 491.917 
           C594.996 507.308 586.192 529.609 581.305 561.618 
           C576.463 593.329 575.436 634.795 575.418 688.929 
           
           M232.595 688.929 
           C232.576 634.795 231.547 593.328 226.702 561.617 
           C221.811 529.608 213.003 507.308 197.212 491.917 
           C181.424 476.53 158.877 468.264 127.01 463.812 
           C95.4437 459.403 54.4973 458.708 1.5 458.695 
           
           M1.5 231.732 
           C54.5089 231.72 95.4611 231.026 127.029 226.616 
           C158.898 222.164 181.444 213.899 197.229 198.512 
           C213.018 183.121 221.822 160.82 226.709 128.812 
           C231.551 97.1004 232.576 55.6338 232.595 1.5" 
        stroke="#FFED00" stroke-width="3" fill="none"/>
</svg>
