<svg width="249" height="223" viewBox="0 0 249 223" fill="none" xmlns="http://www.w3.org/2000/svg">
<path d="M111.672 222.78V203.04C62.604 203.04 40.044 201.348 26.508 195.99C7.896 188.94 0 175.122 0 150.306C0 146.922 0.282001 143.82 0.564 137.898H47.376L47.094 143.538C47.094 152.562 50.76 159.048 57.246 161.022C64.296 163.278 77.832 164.124 111.672 163.842V123.798L75.012 123.234C68.526 123.234 52.452 122.388 45.402 121.824C16.356 119.286 3.384 102.93 3.384 69.936C3.384 40.326 13.254 24.252 35.814 18.33C46.53 15.228 48.504 15.228 105.75 15.228H111.672V0H136.206V15.228C208.116 15.51 216.012 16.356 231.522 26.79C241.392 34.686 244.494 44.838 244.212 70.5H196.554C195.426 54.708 190.632 53.016 148.896 53.58H136.206V87.138L175.686 87.984C208.398 88.83 221.088 91.368 234.06 99.828C244.776 106.878 249.006 119.286 249.006 143.538C249.006 175.968 240.264 190.632 216.012 197.964C203.04 201.912 195.426 202.194 136.206 203.04V222.78H111.672ZM136.206 124.644V164.124C144.666 163.842 153.69 163.842 170.328 163.842C195.426 163.842 201.066 160.176 201.066 143.82C201.066 135.642 198.528 130.848 192.888 128.028C186.684 125.208 186.684 125.208 162.15 124.926L136.206 124.644ZM111.672 53.298H102.366C94.47 53.58 87.702 53.58 82.626 53.58C66.552 53.298 61.194 53.862 57.81 56.118C54.426 58.092 52.452 62.886 52.452 68.808C52.452 82.344 57.81 85.728 78.396 86.01L111.672 86.292V53.298Z" fill="#141416"/>
<path d="M111.672 222.78V203.04C62.604 203.04 40.044 201.348 26.508 195.99C7.896 188.94 0 175.122 0 150.306C0 146.922 0.282001 143.82 0.564 137.898H47.376L47.094 143.538C47.094 152.562 50.76 159.048 57.246 161.022C64.296 163.278 77.832 164.124 111.672 163.842V123.798L75.012 123.234C68.526 123.234 52.452 122.388 45.402 121.824C16.356 119.286 3.384 102.93 3.384 69.936C3.384 40.326 13.254 24.252 35.814 18.33C46.53 15.228 48.504 15.228 105.75 15.228H111.672V0H136.206V15.228C208.116 15.51 216.012 16.356 231.522 26.79C241.392 34.686 244.494 44.838 244.212 70.5H196.554C195.426 54.708 190.632 53.016 148.896 53.58H136.206V87.138L175.686 87.984C208.398 88.83 221.088 91.368 234.06 99.828C244.776 106.878 249.006 119.286 249.006 143.538C249.006 175.968 240.264 190.632 216.012 197.964C203.04 201.912 195.426 202.194 136.206 203.04V222.78H111.672ZM136.206 124.644V164.124C144.666 163.842 153.69 163.842 170.328 163.842C195.426 163.842 201.066 160.176 201.066 143.82C201.066 135.642 198.528 130.848 192.888 128.028C186.684 125.208 186.684 125.208 162.15 124.926L136.206 124.644ZM111.672 53.298H102.366C94.47 53.58 87.702 53.58 82.626 53.58C66.552 53.298 61.194 53.862 57.81 56.118C54.426 58.092 52.452 62.886 52.452 68.808C52.452 82.344 57.81 85.728 78.396 86.01L111.672 86.292V53.298Z" fill="black" fill-opacity="0.2"/>
</svg>
