<svg width="241" height="189" viewBox="0 0 241 189" fill="none" xmlns="http://www.w3.org/2000/svg">
<path d="M0 85.446H28.764C28.764 40.608 30.456 31.02 39.762 18.894C51.888 3.38401 68.526 0 135.36 0C183.864 0 204.732 2.256 217.14 8.46001C232.086 16.356 238.008 29.046 238.008 53.298L237.726 64.014H185.274V60.348C185.274 49.914 179.634 43.992 168.354 42.3C163.56 41.736 146.358 40.89 138.18 40.89C110.262 40.89 96.726 42.018 90.804 45.12C85.728 47.94 83.19 53.298 82.626 62.322C82.344 68.244 82.344 70.5 82.344 85.446H160.458V117.03H83.754C83.19 135.36 77.55 141 55.554 147.204H240.828V188.094H8.46V147.204C9.588 147.486 10.716 147.486 11.28 147.486C22.278 147.486 29.328 136.77 29.328 120.696V117.03H0V85.446Z" fill="#141416"/>
<path d="M0 85.446H28.764C28.764 40.608 30.456 31.02 39.762 18.894C51.888 3.38401 68.526 0 135.36 0C183.864 0 204.732 2.256 217.14 8.46001C232.086 16.356 238.008 29.046 238.008 53.298L237.726 64.014H185.274V60.348C185.274 49.914 179.634 43.992 168.354 42.3C163.56 41.736 146.358 40.89 138.18 40.89C110.262 40.89 96.726 42.018 90.804 45.12C85.728 47.94 83.19 53.298 82.626 62.322C82.344 68.244 82.344 70.5 82.344 85.446H160.458V117.03H83.754C83.19 135.36 77.55 141 55.554 147.204H240.828V188.094H8.46V147.204C9.588 147.486 10.716 147.486 11.28 147.486C22.278 147.486 29.328 136.77 29.328 120.696V117.03H0V85.446Z" fill="black" fill-opacity="0.2"/>
</svg>
