<svg width="237" height="189" viewBox="0 0 237 189" fill="none" xmlns="http://www.w3.org/2000/svg">
<path d="M197.964 52.734H221.934V84.6H174.276L154.536 111.108H219.114V142.974H146.076V188.094H92.214V142.974H18.048V111.108H83.472L63.732 84.6H15.228V52.734H39.48L0 0H64.578L118.722 77.268L172.584 0H236.88L197.964 52.734Z" fill="#141416"/>
<path d="M197.964 52.734H221.934V84.6H174.276L154.536 111.108H219.114V142.974H146.076V188.094H92.214V142.974H18.048V111.108H83.472L63.732 84.6H15.228V52.734H39.48L0 0H64.578L118.722 77.268L172.584 0H236.88L197.964 52.734Z" fill="black" fill-opacity="0.2"/>
</svg>
