<svg width="185" height="270" viewBox="0 0 185 270" fill="none" xmlns="http://www.w3.org/2000/svg">
<path d="M63.45 269.592C49.726 269.592 38.07 267.336 28.482 262.824C19.082 258.5 11.938 252.202 7.05 243.93C2.35 235.846 0 226.352 0 215.448C0 209.432 0.94 203.98 2.82 199.092C4.512 194.204 6.58 190.068 9.024 186.684L47.376 200.22C46.06 203.228 45.026 205.86 44.274 208.116C43.71 210.56 43.428 213.286 43.428 216.294C43.428 221.182 44.744 224.848 47.376 227.292C50.196 229.924 53.674 231.24 57.81 231.24C62.51 231.24 66.176 229.548 68.808 226.164C71.628 222.78 73.038 217.798 73.038 211.218V0H184.992V44.838H126.618V76.14H180.198V120.978H126.618V210.372C126.618 223.908 123.798 235 118.158 243.648C112.518 252.484 104.904 258.97 95.316 263.106C85.728 267.43 75.106 269.592 63.45 269.592Z" fill="#141416"/>
<path d="M63.45 269.592C49.726 269.592 38.07 267.336 28.482 262.824C19.082 258.5 11.938 252.202 7.05 243.93C2.35 235.846 0 226.352 0 215.448C0 209.432 0.94 203.98 2.82 199.092C4.512 194.204 6.58 190.068 9.024 186.684L47.376 200.22C46.06 203.228 45.026 205.86 44.274 208.116C43.71 210.56 43.428 213.286 43.428 216.294C43.428 221.182 44.744 224.848 47.376 227.292C50.196 229.924 53.674 231.24 57.81 231.24C62.51 231.24 66.176 229.548 68.808 226.164C71.628 222.78 73.038 217.798 73.038 211.218V0H184.992V44.838H126.618V76.14H180.198V120.978H126.618V210.372C126.618 223.908 123.798 235 118.158 243.648C112.518 252.484 104.904 258.97 95.316 263.106C85.728 267.43 75.106 269.592 63.45 269.592Z" fill="black" fill-opacity="0.2"/>
</svg>
