<svg width="254" height="191" viewBox="0 0 254 191" fill="none" xmlns="http://www.w3.org/2000/svg">
<path d="M11.844 63.732H21.996C23.124 42.3 27.918 28.764 37.788 19.176C48.222 8.742 62.886 3.666 88.266 1.41C100.674 0.282013 114.774 0 143.538 0C213.474 0 229.266 0.56401 253.236 4.79401L234.342 49.914C212.064 45.684 203.886 45.12 175.122 45.12L150.87 45.402C120.978 45.684 105.186 45.966 103.494 45.966C88.83 48.222 82.344 53.016 79.806 63.732H203.322L191.478 91.932H77.832V100.392H188.094L176.25 128.592H80.934C84.036 137.334 90.24 142.41 99.546 143.538C107.16 144.384 147.768 145.512 172.584 145.512C197.682 145.512 208.116 144.948 228.984 142.128V189.504C205.578 190.914 202.476 190.914 146.076 190.914C98.982 190.914 91.368 190.632 73.884 188.376C40.326 184.146 25.38 166.662 22.278 128.592H0L11.844 100.392H21.15V91.932H0L11.844 63.732Z" fill="#141416"/>
<path d="M11.844 63.732H21.996C23.124 42.3 27.918 28.764 37.788 19.176C48.222 8.742 62.886 3.666 88.266 1.41C100.674 0.282013 114.774 0 143.538 0C213.474 0 229.266 0.56401 253.236 4.79401L234.342 49.914C212.064 45.684 203.886 45.12 175.122 45.12L150.87 45.402C120.978 45.684 105.186 45.966 103.494 45.966C88.83 48.222 82.344 53.016 79.806 63.732H203.322L191.478 91.932H77.832V100.392H188.094L176.25 128.592H80.934C84.036 137.334 90.24 142.41 99.546 143.538C107.16 144.384 147.768 145.512 172.584 145.512C197.682 145.512 208.116 144.948 228.984 142.128V189.504C205.578 190.914 202.476 190.914 146.076 190.914C98.982 190.914 91.368 190.632 73.884 188.376C40.326 184.146 25.38 166.662 22.278 128.592H0L11.844 100.392H21.15V91.932H0L11.844 63.732Z" fill="black" fill-opacity="0.2"/>
</svg>
