<svg width="165" height="204" viewBox="0 0 165 204" fill="none" xmlns="http://www.w3.org/2000/svg">
<path d="M63.168 203.04C53.956 203.04 45.684 202.57 38.352 201.63C31.208 200.69 25.474 199.656 21.15 198.528V123.798L0 132.54V103.776L21.15 95.034V78.96L0 87.702V59.22L21.15 50.196V0H74.73V28.764L117.876 10.434V38.916L74.73 57.246V73.32L117.876 54.99V83.754L74.73 102.084V155.946C82.062 155.946 88.454 154.63 93.906 151.998C99.358 149.366 103.588 145.324 106.596 139.872C109.792 134.42 111.484 127.37 111.672 118.722H164.124C163.56 130.754 161.21 141.94 157.074 152.28C153.126 162.432 147.11 171.362 139.026 179.07C131.13 186.59 120.884 192.512 108.288 196.836C95.88 200.972 80.84 203.04 63.168 203.04Z" fill="#141416"/>
<path d="M63.168 203.04C53.956 203.04 45.684 202.57 38.352 201.63C31.208 200.69 25.474 199.656 21.15 198.528V123.798L0 132.54V103.776L21.15 95.034V78.96L0 87.702V59.22L21.15 50.196V0H74.73V28.764L117.876 10.434V38.916L74.73 57.246V73.32L117.876 54.99V83.754L74.73 102.084V155.946C82.062 155.946 88.454 154.63 93.906 151.998C99.358 149.366 103.588 145.324 106.596 139.872C109.792 134.42 111.484 127.37 111.672 118.722H164.124C163.56 130.754 161.21 141.94 157.074 152.28C153.126 162.432 147.11 171.362 139.026 179.07C131.13 186.59 120.884 192.512 108.288 196.836C95.88 200.972 80.84 203.04 63.168 203.04Z" fill="black" fill-opacity="0.2"/>
</svg>
