<svg width="165" height="202" viewBox="0 0 165 202" fill="none" xmlns="http://www.w3.org/2000/svg">
<path d="M18.894 201.348V0H88.548C114.116 0 133.198 5.546 145.794 16.638C158.578 27.73 164.97 43.522 164.97 64.014C164.97 75.67 162.526 86.668 157.638 97.008C152.938 107.16 145.042 115.432 133.95 121.824C122.858 128.216 107.724 131.506 88.548 131.694H73.32V201.348H18.894ZM0 183.3V150.306H108.57V183.3H0ZM0 131.694V87.42H82.626V131.694H0ZM83.19 87.42C87.89 87.42 92.214 86.574 96.162 84.882C100.298 83.19 103.588 80.652 106.032 77.268C108.664 73.696 109.98 69.372 109.98 64.296C109.98 57.904 108.194 52.922 104.622 49.35C101.05 45.778 95.316 43.992 87.42 43.992H73.32V87.42H83.19Z" fill="#141416"/>
<path d="M18.894 201.348V0H88.548C114.116 0 133.198 5.546 145.794 16.638C158.578 27.73 164.97 43.522 164.97 64.014C164.97 75.67 162.526 86.668 157.638 97.008C152.938 107.16 145.042 115.432 133.95 121.824C122.858 128.216 107.724 131.506 88.548 131.694H73.32V201.348H18.894ZM0 183.3V150.306H108.57V183.3H0ZM0 131.694V87.42H82.626V131.694H0ZM83.19 87.42C87.89 87.42 92.214 86.574 96.162 84.882C100.298 83.19 103.588 80.652 106.032 77.268C108.664 73.696 109.98 69.372 109.98 64.296C109.98 57.904 108.194 52.922 104.622 49.35C101.05 45.778 95.316 43.992 87.42 43.992H73.32V87.42H83.19Z" fill="black" fill-opacity="0.2"/>
</svg>
