<svg width="153" height="308" viewBox="0 0 153 308" fill="none" xmlns="http://www.w3.org/2000/svg">
<path d="M80.24 58.3615V0H103.02V58.3615H80.24ZM35.02 58.3615V0H57.8V58.3615H35.02ZM80.24 308V249.639H103.02V308H80.24ZM35.02 308V249.639H57.8V308H35.02ZM0 274.94V34.0723H58.48C77.9733 34.0723 94.18 36.0964 107.1 40.1446C120.247 43.9679 130.107 50.3775 136.68 59.3735C143.48 68.1446 146.88 80.0643 146.88 95.1325C146.88 104.129 145.747 112.337 143.48 119.759C141.213 127.181 137.927 133.253 133.62 137.976C129.313 142.699 124.1 145.735 117.98 147.084V148.771C124.553 150.345 130.447 153.157 135.66 157.205C140.873 161.253 145.067 167.1 148.24 174.747C151.413 182.394 153 192.514 153 205.108C153 219.727 149.827 232.321 143.48 242.892C137.133 253.237 127.953 261.221 115.94 266.843C104.153 272.241 90.1 274.94 73.78 274.94H0ZM64.26 129.542C75.5933 129.542 83.4133 127.181 87.72 122.458C92.0267 117.735 94.18 110.876 94.18 101.88C94.18 92.6587 91.5733 86.0241 86.36 81.9759C81.1467 77.9277 72.8733 75.9036 61.54 75.9036H51.34V129.542H64.26ZM51.34 170.024V232.771H68C79.7867 232.771 87.9467 229.847 92.48 224C97.24 217.928 99.62 209.944 99.62 200.048C99.62 193.976 98.6 188.691 96.56 184.193C94.52 179.695 91.0067 176.209 86.02 173.735C81.26 171.261 74.6867 170.024 66.3 170.024H51.34Z" fill="#141416"/>
<path d="M80.24 58.3615V0H103.02V58.3615H80.24ZM35.02 58.3615V0H57.8V58.3615H35.02ZM80.24 308V249.639H103.02V308H80.24ZM35.02 308V249.639H57.8V308H35.02ZM0 274.94V34.0723H58.48C77.9733 34.0723 94.18 36.0964 107.1 40.1446C120.247 43.9679 130.107 50.3775 136.68 59.3735C143.48 68.1446 146.88 80.0643 146.88 95.1325C146.88 104.129 145.747 112.337 143.48 119.759C141.213 127.181 137.927 133.253 133.62 137.976C129.313 142.699 124.1 145.735 117.98 147.084V148.771C124.553 150.345 130.447 153.157 135.66 157.205C140.873 161.253 145.067 167.1 148.24 174.747C151.413 182.394 153 192.514 153 205.108C153 219.727 149.827 232.321 143.48 242.892C137.133 253.237 127.953 261.221 115.94 266.843C104.153 272.241 90.1 274.94 73.78 274.94H0ZM64.26 129.542C75.5933 129.542 83.4133 127.181 87.72 122.458C92.0267 117.735 94.18 110.876 94.18 101.88C94.18 92.6587 91.5733 86.0241 86.36 81.9759C81.1467 77.9277 72.8733 75.9036 61.54 75.9036H51.34V129.542H64.26ZM51.34 170.024V232.771H68C79.7867 232.771 87.9467 229.847 92.48 224C97.24 217.928 99.62 209.944 99.62 200.048C99.62 193.976 98.6 188.691 96.56 184.193C94.52 179.695 91.0067 176.209 86.02 173.735C81.26 171.261 74.6867 170.024 66.3 170.024H51.34Z" fill="black" fill-opacity="0.2"/>
</svg>
